<svg width="38px" height="39px" viewBox="0 0 38 39" version="1.1" xmlns="http://www.w3.org/2000/svg">
    <path fill="#FFFFFF" d="M0,7.54368932 C0,3.37742286 3.37742286,0 7.54368932,0 L30.1747573,0 C34.3409483,0 37.7184466,3.37742286 37.7184466,7.54368932 L37.7184466,30.1747573 C37.7184466,34.3409483 34.3409483,37.7184466 30.1747573,37.7184466 L7.54368932,37.7184466 C3.37742286,37.7184466 0,34.3409483 0,30.1747573 L0,7.54368932 Z M7.54368932,3.77184466 C5.46055609,3.77184466 3.77184466,5.46055609 3.77184466,7.54368932 L3.77184466,30.1747573 C3.77184466,32.2579471 5.46055609,33.9466019 7.54368932,33.9466019 L18.8592233,33.9466019 L18.8592233,20.7451456 L16.973301,20.7451456 C15.9317061,20.7451456 15.0873786,19.9008182 15.0873786,18.8592233 C15.0873786,17.8176284 15.9317061,16.973301 16.973301,16.973301 L18.8592233,16.973301 L18.8592233,14.1444175 C18.8592233,10.4989296 21.8144636,7.54368932 25.4599515,7.54368932 L26.5915049,7.54368932 C27.6330998,7.54368932 28.4774272,8.38805447 28.4774272,9.42961165 C28.4774272,10.4711688 27.6330998,11.315534 26.5915049,11.315534 L25.4599515,11.315534 C23.8976534,11.315534 22.631068,12.5820628 22.631068,14.1444175 L22.631068,16.973301 L26.5915049,16.973301 C27.6330998,16.973301 28.4774272,17.8176284 28.4774272,18.8592233 C28.4774272,19.9008182 27.6330998,20.7451456 26.5915049,20.7451456 L22.631068,20.7451456 L22.631068,33.9466019 L30.1747573,33.9466019 C32.2579471,33.9466019 33.9466019,32.2579471 33.9466019,30.1747573 L33.9466019,7.54368932 C33.9466019,5.46055609 32.2579471,3.77184466 30.1747573,3.77184466 L7.54368932,3.77184466 Z" id="Shape"/>
</svg>
