<?xml version="1.0" encoding="UTF-8"?>
<svg width="39px" height="39px" viewBox="0 0 39 39" version="1.1" xmlns="http://www.w3.org/2000/svg" xmlns:xlink="http://www.w3.org/1999/xlink">
    <title>Shape</title>
    <g id="Symbols" stroke="none" stroke-width="1" fill="none" fill-rule="evenodd">
        <g id="Footer" transform="translate(-428.000000, -231.000000)" fill="#FFFFFF">
            <g id="Group-5" transform="translate(378.000000, 59.000000)">
                <g id="Group" transform="translate(0.000000, -0.000000)">
                    <g id="instagram-svgrepo-com" transform="translate(50.650485, 172.723301)">
                        <path d="M0,7.54368932 C0,3.37742286 3.37742286,0 7.54368932,0 L30.1747573,0 C34.3409483,0 37.7184466,3.37742286 37.7184466,7.54368932 L37.7184466,30.1747573 C37.7184466,34.3409483 34.3409483,37.7184466 30.1747573,37.7184466 L7.54368932,37.7184466 C3.37742286,37.7184466 0,34.3409483 0,30.1747573 L0,7.54368932 Z M7.54368932,3.77184466 C5.46055609,3.77184466 3.77184466,5.46055609 3.77184466,7.54368932 L3.77184466,30.1747573 C3.77184466,32.2579471 5.46055609,33.9466019 7.54368932,33.9466019 L30.1747573,33.9466019 C32.2579471,33.9466019 33.9466019,32.2579471 33.9466019,30.1747573 L33.9466019,7.54368932 C33.9466019,5.46055609 32.2579471,3.77184466 30.1747573,3.77184466 L7.54368932,3.77184466 Z M18.8592233,13.2014563 C15.7344386,13.2014563 13.2014563,15.7344386 13.2014563,18.8592233 C13.2014563,21.984008 15.7344386,24.5169903 18.8592233,24.5169903 C21.984008,24.5169903 24.5169903,21.984008 24.5169903,18.8592233 C24.5169903,15.7344386 21.984008,13.2014563 18.8592233,13.2014563 Z M9.42961165,18.8592233 C9.42961165,13.6513997 13.6513997,9.42961165 18.8592233,9.42961165 C24.0670092,9.42961165 28.288835,13.6513997 28.288835,18.8592233 C28.288835,24.0670092 24.0670092,28.288835 18.8592233,28.288835 C13.6513997,28.288835 9.42961165,24.0670092 9.42961165,18.8592233 Z M29.2317961,11.315534 C30.7940942,11.315534 32.0606796,10.0490051 32.0606796,8.48665049 C32.0606796,6.92429585 30.7940942,5.65776699 29.2317961,5.65776699 C27.6694981,5.65776699 26.4029126,6.92429585 26.4029126,8.48665049 C26.4029126,10.0490051 27.6694981,11.315534 29.2317961,11.315534 Z" id="Shape"></path>
                    </g>
                </g>
            </g>
        </g>
    </g>
</svg>