<?xml version="1.0" encoding="UTF-8"?>
<svg width="39px" height="39px" viewBox="0 0 39 39" version="1.1" xmlns="http://www.w3.org/2000/svg" xmlns:xlink="http://www.w3.org/1999/xlink">
    <title>Shape 2</title>
    <g id="Symbols" stroke="none" stroke-width="1" fill="none" fill-rule="evenodd">
        <g id="Footer" transform="translate(-479.000000, -231.000000)" fill="#FFFFFF">
            <g id="Group-5" transform="translate(378.000000, 59.000000)">
                <g id="Group" transform="translate(0.000000, -0.000000)">
                    <g id="linkedin-svgrepo-com" transform="translate(101.300971, 172.723301)">
                        <path d="M7.54368932,0 C3.37742286,0 0,3.37742286 0,7.54368932 L0,30.1747573 C0,34.3409483 3.37742286,37.7184466 7.54368932,37.7184466 L30.1747573,37.7184466 C34.3409483,37.7184466 37.7184466,34.3409483 37.7184466,30.1747573 L37.7184466,7.54368932 C37.7184466,3.37742286 34.3409483,0 30.1747573,0 L7.54368932,0 Z M3.77184466,7.54368932 C3.77184466,5.46055609 5.46055609,3.77184466 7.54368932,3.77184466 L30.1747573,3.77184466 C32.2579471,3.77184466 33.9466019,5.46055609 33.9466019,7.54368932 L33.9466019,30.1747573 C33.9466019,32.2579471 32.2579471,33.9466019 30.1747573,33.9466019 L7.54368932,33.9466019 C5.46055609,33.9466019 3.77184466,32.2579471 3.77184466,30.1747573 L3.77184466,7.54368932 Z M13.2014563,16.973301 C13.2014563,15.9317061 12.3570912,15.0873786 11.315534,15.0873786 C10.2739768,15.0873786 9.42961165,15.9317061 9.42961165,16.973301 L9.42961165,28.288835 C9.42961165,29.3304299 10.2739768,30.1747573 11.315534,30.1747573 C12.3570912,30.1747573 13.2014563,29.3304299 13.2014563,28.288835 L13.2014563,16.973301 Z M14.1444175,10.3725728 C14.1444175,11.9349275 12.8778886,13.2014563 11.315534,13.2014563 C9.75317934,13.2014563 8.48665049,11.9349275 8.48665049,10.3725728 C8.48665049,8.81021818 9.75317934,7.54368932 11.315534,7.54368932 C12.8778886,7.54368932 14.1444175,8.81021818 14.1444175,10.3725728 Z M18.8592233,15.0873786 C19.4994939,15.0873786 20.0652706,15.4064767 20.4062454,15.8943648 C21.3729692,15.3706442 22.449265,15.0873786 23.5740291,15.0873786 C27.6464898,15.0873786 30.1747573,18.7192879 30.1747573,21.8227617 L30.1747573,21.8370947 L30.1747573,21.8512391 L30.1747573,21.8655721 L30.1747573,21.8799051 L30.1747573,21.8942381 L30.1747573,21.9087597 L30.1747573,21.9230927 L30.1747573,21.9376143 L30.1747573,21.9521359 L30.1747573,21.9666575 L30.1747573,21.9813677 L30.1747573,21.9958893 L30.1747573,22.0105995 L30.1747573,22.0253097 L30.1747573,22.0400199 L30.1747573,22.0547301 L30.1747573,22.0694403 L30.1747573,22.0843391 L30.1747573,22.0992379 L30.1747573,22.1139481 L30.1747573,22.1290354 L30.1747573,22.1439342 L30.1747573,22.158833 L30.1747573,22.1739204 L30.1747573,22.1888192 L30.1747573,22.2039066 L30.1747573,22.2189939 L30.1747573,22.2342699 L30.1747573,22.2493573 L30.1747573,22.2646333 L30.1747573,22.2797206 L30.1747573,22.2949966 L30.1747573,22.3102726 L30.1747573,22.3255485 L30.1747573,22.3410131 L30.1747573,22.3562891 L30.1747573,22.3717536 L30.1747573,22.3870296 L30.1747573,22.4024942 L30.1747573,22.4179587 L30.1747573,22.4336119 L30.1747573,22.4490765 L30.1747573,22.464541 L30.1747573,22.4801942 L30.1747573,22.4958473 L30.1747573,22.5113119 L30.1747573,22.526965 L30.1747573,22.5428068 L30.1747573,22.55846 L30.1747573,22.5741131 L30.1747573,22.5899549 L30.1747573,22.6057966 L30.1747573,22.6214498 L30.1747573,22.6372915 L30.1747573,22.6531333 L30.1747573,22.668975 L30.1747573,22.6850053 L30.1747573,22.7008471 L30.1747573,22.7168774 L30.1747573,22.7327192 L30.1747573,22.7487495 L30.1747573,22.7647799 L30.1747573,22.7808102 L30.1747573,22.7968405 L30.1747573,22.8128709 L30.1747573,22.8289012 L30.1747573,22.8451201 L30.1747573,22.8611505 L30.1747573,22.8773694 L30.1747573,22.8935883 L30.1747573,22.9098073 L30.1747573,22.9258376 L30.1747573,22.9422451 L30.1747573,22.9584641 L30.1747573,22.974683 L30.1747573,22.9909019 L30.1747573,23.0073095 L30.1747573,23.0235284 L30.1747573,23.0399359 L30.1747573,23.0561549 L30.1747573,23.0725624 L30.1747573,23.0889699 L30.1747573,23.1053774 L30.1747573,23.121785 L30.1747573,23.1381925 L30.1747573,23.1546 L30.1747573,23.1711961 L30.1747573,23.1876036 L30.1747573,23.2041998 L30.1747573,23.2206073 L30.1747573,23.2372034 L30.1747573,23.2536109 L30.1747573,23.270207 L30.1747573,23.2868032 L30.1747573,23.3033993 L30.1747573,23.3199954 L30.1747573,23.3365915 L30.1747573,23.3531876 L30.1747573,23.3697837 L30.1747573,23.3863799 L30.1747573,23.402976 L30.1747573,23.4197607 L30.1747573,23.4363568 L30.1747573,23.4531415 L30.1747573,23.4697376 L30.1747573,23.4865223 L30.1747573,23.5031184 L30.1747573,23.5199032 L30.1747573,23.5366879 L30.1747573,23.5534726 L30.1747573,23.5700687 L30.1747573,23.5868534 L30.1747573,23.6036381 L30.1747573,23.6204228 L30.1747573,23.6372075 L30.1747573,23.6539922 L30.1747573,23.6707769 L30.1747573,23.6875617 L30.1747573,23.704535 L30.1747573,23.7213197 L30.1747573,23.7381044 L30.1747573,23.7548891 L30.1747573,23.7718624 L30.1747573,23.7886471 L30.1747573,23.8054318 L30.1747573,23.8224051 L30.1747573,23.8391898 L30.1747573,23.8561631 L30.1747573,23.8729478 L30.1747573,23.8897325 L30.1747573,23.9067058 L30.1747573,23.9236791 L30.1747573,23.9404638 L30.1747573,23.9574371 L30.1747573,23.9742218 L30.1747573,23.9911951 L30.1747573,24.0081684 L30.1747573,24.0249532 L30.1747573,24.0419265 L30.1747573,24.0587112 L30.1747573,24.0756845 L30.1747573,24.0926578 L30.1747573,24.1094425 L30.1747573,24.1264158 L30.1747573,24.1433891 L30.1747573,24.1601738 L30.1747573,24.1771471 L30.1747573,24.1941204 L30.1747573,24.2110937 L30.1747573,24.2278784 L30.1747573,24.2448517 L30.1747573,24.261825 L30.1747573,24.2786097 L30.1747573,24.295583 L30.1747573,24.3125563 L30.1747573,24.329341 L30.1747573,24.3463143 L30.1747573,24.363099 L30.1747573,24.3800723 L30.1747573,24.396857 L30.1747573,24.4138303 L30.1747573,24.4308036 L30.1747573,24.4475883 L30.1747573,24.4645617 L30.1747573,24.4813464 L30.1747573,24.4981311 L30.1747573,24.5151044 L30.1747573,24.5318891 L30.1747573,24.5488624 L30.1747573,24.5656471 L30.1747573,24.5824318 L30.1747573,24.5992165 L30.1747573,24.6161898 L30.1747573,24.6329745 L30.1747573,24.6497592 L30.1747573,24.6665439 L30.1747573,24.6833286 L30.1747573,24.7001133 L30.1747573,24.7168981 L30.1747573,24.7336828 L30.1747573,24.7504675 L30.1747573,24.7672522 L30.1747573,24.7840369 L30.1747573,24.800633 L30.1747573,24.8174177 L30.1747573,24.8342024 L30.1747573,24.8507985 L30.1747573,24.8675833 L30.1747573,24.8841794 L30.1747573,24.9009641 L30.1747573,24.9175602 L30.1747573,24.9343449 L30.1747573,24.950941 L30.1747573,24.9675371 L30.1747573,24.9841333 L30.1747573,25.0007294 L30.1747573,25.0173255 L30.1747573,25.0339216 L30.1747573,25.0505177 L30.1747573,25.0671138 L30.1747573,25.08371 L30.1747573,25.1001175 L30.1747573,25.1167136 L30.1747573,25.1331211 L30.1747573,25.1497172 L30.1747573,25.1661248 L30.1747573,25.1825323 L30.1747573,25.1989398 L30.1747573,25.2153473 L30.1747573,25.2317549 L30.1747573,25.2481624 L30.1747573,25.2645699 L30.1747573,25.2809774 L30.1747573,25.297385 L30.1747573,25.3136039 L30.1747573,25.3300114 L30.1747573,25.3462303 L30.1747573,25.3624493 L30.1747573,25.3788568 L30.1747573,25.3950757 L30.1747573,25.4112947 L30.1747573,25.427325 L30.1747573,25.4435439 L30.1747573,25.4597629 L30.1747573,25.4759818 L30.1747573,25.4920121 L30.1747573,25.5080425 L30.1747573,25.5242614 L30.1747573,25.5402917 L30.1747573,25.5563221 L30.1747573,25.5723524 L30.1747573,25.5883828 L30.1747573,25.6042245 L30.1747573,25.6202549 L30.1747573,25.6360966 L30.1747573,25.6521269 L30.1747573,25.6679687 L30.1747573,25.6838104 L30.1747573,25.6996522 L30.1747573,25.7154939 L30.1747573,25.7313357 L30.1747573,25.7469888 L30.1747573,25.7628306 L30.1747573,25.7784837 L30.1747573,25.7941369 L30.1747573,25.80979 L30.1747573,25.8254432 L30.1747573,25.8410964 L30.1747573,25.8567495 L30.1747573,25.8722141 L30.1747573,25.8878672 L30.1747573,25.9033318 L30.1747573,25.9187964 L30.1747573,25.9342609 L30.1747573,25.9497255 L30.1747573,25.96519 L30.1747573,25.980466 L30.1747573,25.9959306 L30.1747573,26.0112066 L30.1747573,26.0264825 L30.1747573,26.0417585 L30.1747573,26.0570345 L30.1747573,26.0721218 L30.1747573,26.0873978 L30.1747573,26.1024852 L30.1747573,26.1175726 L30.1747573,26.13266 L30.1747573,26.1477473 L30.1747573,26.1628347 L30.1747573,26.1777335 L30.1747573,26.1926323 L30.1747573,26.2077197 L30.1747573,26.2226184 L30.1747573,26.2373286 L30.1747573,26.2522274 L30.1747573,26.2671262 L30.1747573,26.2818364 L30.1747573,26.2965466 L30.1747573,26.3112568 L30.1747573,26.325967 L30.1747573,26.3404886 L30.1747573,26.3551988 L30.1747573,26.3697204 L30.1747573,26.384242 L30.1747573,26.3987636 L30.1747573,26.4132852 L30.1747573,26.4276182 L30.1747573,26.4421398 L30.1747573,26.4564728 L30.1747573,26.4708058 L30.1747573,26.4849502 L30.1747573,26.4992833 L30.1747573,26.5134277 L30.1747573,26.5275721 L30.1747573,26.5417165 L30.1747573,26.5558609 L30.1747573,26.5700053 L30.1747573,26.5839612 L30.1747573,26.597917 L30.1747573,26.6118728 L30.1747573,26.6258286 L30.1747573,26.6395959 L30.1747573,26.6535517 L30.1747573,26.6673189 L30.1747573,26.6810862 L30.1747573,26.6946648 L30.1747573,26.708432 L30.1747573,26.7220107 L30.1747573,26.7355893 L30.1747573,26.749168 L30.1747573,26.7627466 L30.1747573,26.7761367 L30.1747573,26.7895267 L30.1747573,26.8029167 L30.1747573,26.8163068 L30.1747573,26.8295083 L30.1747573,26.8427097 L30.1747573,26.8559112 L30.1747573,26.8691126 L30.1747573,26.8823141 L30.1747573,26.8953269 L30.1747573,26.9083398 L30.1747573,26.9213527 L30.1747573,26.9343655 L30.1747573,26.9471898 L30.1747573,26.9600141 L30.1747573,26.9728383 L30.1747573,26.9856626 L30.1747573,26.9982983 L30.1747573,27.010934 L30.1747573,27.0235697 L30.1747573,27.0362053 L30.1747573,27.048841 L30.1747573,27.0612881 L30.1747573,27.0737352 L30.1747573,27.0859937 L30.1747573,27.0984408 L30.1747573,27.1106993 L30.1747573,27.1229578 L30.1747573,27.1350277 L30.1747573,27.1472862 L30.1747573,27.1593561 L30.1747573,27.171426 L30.1747573,27.1833073 L30.1747573,27.1953772 L30.1747573,27.2072585 L30.1747573,27.2191398 L30.1747573,27.2308325 L30.1747573,27.2425252 L30.1747573,27.254218 L30.1747573,27.2659107 L30.1747573,27.2776034 L30.1747573,27.2891075 L30.1747573,27.3006117 L30.1747573,27.3119272 L30.1747573,27.3234313 L30.1747573,27.3347468 L30.1747573,27.3458738 L30.1747573,27.3571893 L30.1747573,27.3683163 L30.1747573,27.3794432 L30.1747573,27.3905701 L30.1747573,27.4015085 L30.1747573,27.4124468 L30.1747573,27.4233852 L30.1747573,27.434135 L30.1747573,27.4448847 L30.1747573,27.4556345 L30.1747573,27.4663842 L30.1747573,27.4769454 L30.1747573,27.4875066 L30.1747573,27.4980677 L30.1747573,27.5084403 L30.1747573,27.5188129 L30.1747573,27.5291854 L30.1747573,27.5393694 L30.1747573,27.549742 L30.1747573,27.5597374 L30.1747573,27.5699214 L30.1747573,27.5799167 L30.1747573,27.5899121 L30.1747573,27.5999075 L30.1747573,27.6097143 L30.1747573,27.6195211 L30.1747573,27.6293279 L30.1747573,27.6389461 L30.1747573,27.6485643 L30.1747573,27.6581825 L30.1747573,27.6676121 L30.1747573,27.6770417 L30.1747573,27.6864714 L30.1747573,27.6957124 L30.1747573,27.7049534 L30.1747573,27.7141944 L30.1747573,27.7232468 L30.1747573,27.7322993 L30.1747573,27.7413517 L30.1747573,27.7502155 L30.1747573,27.7590794 L30.1747573,27.7679432 L30.1747573,27.7766184 L30.1747573,27.7852937 L30.1747573,27.7939689 L30.1747573,27.8024556 L30.1747573,27.8109422 L30.1747573,27.8194289 L30.1747573,27.8277269 L30.1747573,27.836025 L30.1747573,27.8443231 L30.1747573,27.8524325 L30.1747573,27.860542 L30.1747573,27.8684629 L30.1747573,27.8763837 L30.1747573,27.8843046 L30.1747573,27.8922255 L30.1747573,27.8999578 L30.1747573,27.9075015 L30.1747573,27.9152337 L30.1747573,27.9227774 L30.1747573,27.9301325 L30.1747573,27.9376762 L30.1747573,27.9450313 L30.1747573,27.9521978 L30.1747573,27.9593643 L30.1747573,27.9665308 L30.1747573,27.9735087 L30.1747573,27.9804867 L30.1747573,27.9874646 L30.1747573,27.9942539 L30.1747573,28.0010432 L30.1747573,28.0078325 L30.1747573,28.0144333 L30.1747573,28.021034 L30.1747573,28.0274461 L30.1747573,28.0338583 L30.1747573,28.0402704 L30.1747573,28.0464939 L30.1747573,28.0527175 L30.1747573,28.0587524 L30.1747573,28.0647874 L30.1747573,28.0708223 L30.1747573,28.0766687 L30.1747573,28.082515 L30.1747573,28.0881728 L30.1747573,28.0938306 L30.1747573,28.0994883 L30.1747573,28.1049575 L30.1747573,28.1104267 L30.1747573,28.1158959 L30.1747573,28.1211765 L30.1747573,28.1262684 L30.1747573,28.1313604 L30.1747573,28.1364524 L30.1747573,28.1415444 L30.1747573,28.1464478 L30.1747573,28.1511626 L30.1747573,28.1558774 L30.1747573,28.1605922 L30.1747573,28.1651184 L30.1747573,28.1696447 L30.1747573,28.1741709 L30.1747573,28.1785085 L30.1747573,28.1828461 L30.1747573,28.1869951 L30.1747573,28.1909556 L30.1747573,28.1951046 L30.1747573,28.199065 L30.1747573,28.2028369 L30.1747573,28.2066087 L30.1747573,28.2103806 L30.1747573,28.2139638 L30.1747573,28.2175471 L30.1747573,28.2209417 L30.1747573,28.2243364 L30.1747573,28.2277311 L30.1747573,28.2309371 L30.1747573,28.2339546 L30.1747573,28.2369721 L30.1747573,28.2399896 L30.1747573,28.2428184 L30.1747573,28.2456473 L30.1747573,28.2482876 L30.1747573,28.2509279 L30.1747573,28.2535682 L30.1747573,28.2560199 L30.1747573,28.258283 L30.1747573,28.2605461 L30.1747573,28.2628092 L30.1747573,28.2648837 L30.1747573,28.2669583 L30.1747573,28.2688442 L30.1747573,28.2707301 L30.1747573,28.2724274 L30.1747573,28.2741248 L30.1747573,28.2756335 L30.1747573,28.2771422 L30.1747573,28.278651 L30.1747573,28.2799711 L30.1747573,28.2811027 L30.1747573,28.2822342 L30.1747573,28.2833658 L30.1747573,28.2843087 L30.1747573,28.2850631 L30.1747573,28.2858175 L30.1747573,28.2865718 L30.1747573,28.2871376 L30.1747573,28.2877034 L30.1747573,28.2880806 L30.1747573,28.2884578 L30.1747573,28.2886464 L30.1747573,28.288835 C30.1747573,28.288835 30.1747573,28.288835 30.1747573,28.288835 C30.1747573,29.3304299 29.3304299,30.1747573 28.288835,30.1747573 C27.24724,30.1747573 26.4029126,29.3304299 26.4029126,28.288835 C26.4029126,28.288835 26.4029126,28.288835 26.4029126,28.288835 L26.4029126,28.2886464 L26.4029126,28.2884578 L26.4029126,28.2880806 L26.4029126,28.2877034 L26.4029126,28.2871376 L26.4029126,28.2865718 L26.4029126,28.2858175 L26.4029126,28.2850631 L26.4029126,28.2843087 L26.4029126,28.2833658 L26.4029126,28.2822342 L26.4029126,28.2811027 L26.4029126,28.2799711 L26.4029126,28.278651 L26.4029126,28.2771422 L26.4029126,28.2756335 L26.4029126,28.2741248 L26.4029126,28.2724274 L26.4029126,28.2707301 L26.4029126,28.2688442 L26.4029126,28.2669583 L26.4029126,28.2648837 L26.4029126,28.2628092 L26.4029126,28.2605461 L26.4029126,28.258283 L26.4029126,28.2560199 L26.4029126,28.2535682 L26.4029126,28.2509279 L26.4029126,28.2482876 L26.4029126,28.2456473 L26.4029126,28.2428184 L26.4029126,28.2399896 L26.4029126,28.2369721 L26.4029126,28.2339546 L26.4029126,28.2309371 L26.4029126,28.2277311 L26.4029126,28.2243364 L26.4029126,28.2209417 L26.4029126,28.2175471 L26.4029126,28.2139638 L26.4029126,28.2103806 L26.4029126,28.2066087 L26.4029126,28.2028369 L26.4029126,28.199065 L26.4029126,28.1951046 L26.4029126,28.1909556 L26.4029126,28.1869951 L26.4029126,28.1828461 L26.4029126,28.1785085 L26.4029126,28.1741709 L26.4029126,28.1696447 L26.4029126,28.1651184 L26.4029126,28.1605922 L26.4029126,28.1558774 L26.4029126,28.1511626 L26.4029126,28.1464478 L26.4029126,28.1415444 L26.4029126,28.1364524 L26.4029126,28.1313604 L26.4029126,28.1262684 L26.4029126,28.1211765 L26.4029126,28.1158959 L26.4029126,28.1104267 L26.4029126,28.1049575 L26.4029126,28.0994883 L26.4029126,28.0938306 L26.4029126,28.0881728 L26.4029126,28.082515 L26.4029126,28.0766687 L26.4029126,28.0708223 L26.4029126,28.0647874 L26.4029126,28.0587524 L26.4029126,28.0527175 L26.4029126,28.0464939 L26.4029126,28.0402704 L26.4029126,28.0338583 L26.4029126,28.0274461 L26.4029126,28.021034 L26.4029126,28.0144333 L26.4029126,28.0078325 L26.4029126,28.0010432 L26.4029126,27.9942539 L26.4029126,27.9874646 L26.4029126,27.9804867 L26.4029126,27.9735087 L26.4029126,27.9665308 L26.4029126,27.9593643 L26.4029126,27.9521978 L26.4029126,27.9450313 L26.4029126,27.9376762 L26.4029126,27.9301325 L26.4029126,27.9227774 L26.4029126,27.9152337 L26.4029126,27.9075015 L26.4029126,27.8999578 L26.4029126,27.8922255 L26.4029126,27.8843046 L26.4029126,27.8763837 L26.4029126,27.8684629 L26.4029126,27.860542 L26.4029126,27.8524325 L26.4029126,27.8443231 L26.4029126,27.836025 L26.4029126,27.8277269 L26.4029126,27.8194289 L26.4029126,27.8109422 L26.4029126,27.8024556 L26.4029126,27.7939689 L26.4029126,27.7852937 L26.4029126,27.7766184 L26.4029126,27.7679432 L26.4029126,27.7590794 L26.4029126,27.7502155 L26.4029126,27.7413517 L26.4029126,27.7322993 L26.4029126,27.7232468 L26.4029126,27.7141944 L26.4029126,27.7049534 L26.4029126,27.6957124 L26.4029126,27.6864714 L26.4029126,27.6770417 L26.4029126,27.6676121 L26.4029126,27.6581825 L26.4029126,27.6485643 L26.4029126,27.6389461 L26.4029126,27.6293279 L26.4029126,27.6195211 L26.4029126,27.6097143 L26.4029126,27.5999075 L26.4029126,27.5899121 L26.4029126,27.5799167 L26.4029126,27.5699214 L26.4029126,27.5597374 L26.4029126,27.549742 L26.4029126,27.5393694 L26.4029126,27.5291854 L26.4029126,27.5188129 L26.4029126,27.5084403 L26.4029126,27.4980677 L26.4029126,27.4875066 L26.4029126,27.4769454 L26.4029126,27.4663842 L26.4029126,27.4556345 L26.4029126,27.4448847 L26.4029126,27.434135 L26.4029126,27.4233852 L26.4029126,27.4124468 L26.4029126,27.4015085 L26.4029126,27.3905701 L26.4029126,27.3794432 L26.4029126,27.3683163 L26.4029126,27.3571893 L26.4029126,27.3458738 L26.4029126,27.3347468 L26.4029126,27.3234313 L26.4029126,27.3119272 L26.4029126,27.3006117 L26.4029126,27.2891075 L26.4029126,27.2776034 L26.4029126,27.2659107 L26.4029126,27.254218 L26.4029126,27.2425252 L26.4029126,27.2308325 L26.4029126,27.2191398 L26.4029126,27.2072585 L26.4029126,27.1953772 L26.4029126,27.1833073 L26.4029126,27.171426 L26.4029126,27.1593561 L26.4029126,27.1472862 L26.4029126,27.1350277 L26.4029126,27.1229578 L26.4029126,27.1106993 L26.4029126,27.0984408 L26.4029126,27.0859937 L26.4029126,27.0737352 L26.4029126,27.0612881 L26.4029126,27.048841 L26.4029126,27.0362053 L26.4029126,27.0235697 L26.4029126,27.010934 L26.4029126,26.9982983 L26.4029126,26.9856626 L26.4029126,26.9728383 L26.4029126,26.9600141 L26.4029126,26.9471898 L26.4029126,26.9343655 L26.4029126,26.9213527 L26.4029126,26.9083398 L26.4029126,26.8953269 L26.4029126,26.8823141 L26.4029126,26.8691126 L26.4029126,26.8559112 L26.4029126,26.8427097 L26.4029126,26.8295083 L26.4029126,26.8163068 L26.4029126,26.8029167 L26.4029126,26.7895267 L26.4029126,26.7761367 L26.4029126,26.7627466 L26.4029126,26.749168 L26.4029126,26.7355893 L26.4029126,26.7220107 L26.4029126,26.708432 L26.4029126,26.6946648 L26.4029126,26.6810862 L26.4029126,26.6673189 L26.4029126,26.6535517 L26.4029126,26.6395959 L26.4029126,26.6258286 L26.4029126,26.6118728 L26.4029126,26.597917 L26.4029126,26.5839612 L26.4029126,26.5700053 L26.4029126,26.5558609 L26.4029126,26.5417165 L26.4029126,26.5275721 L26.4029126,26.5134277 L26.4029126,26.4992833 L26.4029126,26.4849502 L26.4029126,26.4708058 L26.4029126,26.4564728 L26.4029126,26.4421398 L26.4029126,26.4276182 L26.4029126,26.4132852 L26.4029126,26.3987636 L26.4029126,26.384242 L26.4029126,26.3697204 L26.4029126,26.3551988 L26.4029126,26.3404886 L26.4029126,26.325967 L26.4029126,26.3112568 L26.4029126,26.2965466 L26.4029126,26.2818364 L26.4029126,26.2671262 L26.4029126,26.2522274 L26.4029126,26.2373286 L26.4029126,26.2226184 L26.4029126,26.2077197 L26.4029126,26.1926323 L26.4029126,26.1777335 L26.4029126,26.1628347 L26.4029126,26.1477473 L26.4029126,26.13266 L26.4029126,26.1175726 L26.4029126,26.1024852 L26.4029126,26.0873978 L26.4029126,26.0721218 L26.4029126,26.0570345 L26.4029126,26.0417585 L26.4029126,26.0264825 L26.4029126,26.0112066 L26.4029126,25.9959306 L26.4029126,25.980466 L26.4029126,25.96519 L26.4029126,25.9497255 L26.4029126,25.9342609 L26.4029126,25.9187964 L26.4029126,25.9033318 L26.4029126,25.8878672 L26.4029126,25.8722141 L26.4029126,25.8567495 L26.4029126,25.8410964 L26.4029126,25.8254432 L26.4029126,25.80979 L26.4029126,25.7941369 L26.4029126,25.7784837 L26.4029126,25.7628306 L26.4029126,25.7469888 L26.4029126,25.7313357 L26.4029126,25.7154939 L26.4029126,25.6996522 L26.4029126,25.6838104 L26.4029126,25.6679687 L26.4029126,25.6521269 L26.4029126,25.6360966 L26.4029126,25.6202549 L26.4029126,25.6042245 L26.4029126,25.5883828 L26.4029126,25.5723524 L26.4029126,25.5563221 L26.4029126,25.5402917 L26.4029126,25.5242614 L26.4029126,25.5080425 L26.4029126,25.4920121 L26.4029126,25.4759818 L26.4029126,25.4597629 L26.4029126,25.4435439 L26.4029126,25.427325 L26.4029126,25.4112947 L26.4029126,25.3950757 L26.4029126,25.3788568 L26.4029126,25.3624493 L26.4029126,25.3462303 L26.4029126,25.3300114 L26.4029126,25.3136039 L26.4029126,25.297385 L26.4029126,25.2809774 L26.4029126,25.2645699 L26.4029126,25.2481624 L26.4029126,25.2317549 L26.4029126,25.2153473 L26.4029126,25.1989398 L26.4029126,25.1825323 L26.4029126,25.1661248 L26.4029126,25.1497172 L26.4029126,25.1331211 L26.4029126,25.1167136 L26.4029126,25.1001175 L26.4029126,25.08371 L26.4029126,25.0671138 L26.4029126,25.0505177 L26.4029126,25.0339216 L26.4029126,25.0173255 L26.4029126,25.0007294 L26.4029126,24.9841333 L26.4029126,24.9675371 L26.4029126,24.950941 L26.4029126,24.9343449 L26.4029126,24.9175602 L26.4029126,24.9009641 L26.4029126,24.8841794 L26.4029126,24.8675833 L26.4029126,24.8507985 L26.4029126,24.8342024 L26.4029126,24.8174177 L26.4029126,24.800633 L26.4029126,24.7840369 L26.4029126,24.7672522 L26.4029126,24.7504675 L26.4029126,24.7336828 L26.4029126,24.7168981 L26.4029126,24.7001133 L26.4029126,24.6833286 L26.4029126,24.6665439 L26.4029126,24.6497592 L26.4029126,24.6329745 L26.4029126,24.6161898 L26.4029126,24.5992165 L26.4029126,24.5824318 L26.4029126,24.5656471 L26.4029126,24.5488624 L26.4029126,24.5318891 L26.4029126,24.5151044 L26.4029126,24.4981311 L26.4029126,24.4813464 L26.4029126,24.4645617 L26.4029126,24.4475883 L26.4029126,24.4308036 L26.4029126,24.4138303 L26.4029126,24.396857 L26.4029126,24.3800723 L26.4029126,24.363099 L26.4029126,24.3463143 L26.4029126,24.329341 L26.4029126,24.3125563 L26.4029126,24.295583 L26.4029126,24.2786097 L26.4029126,24.261825 L26.4029126,24.2448517 L26.4029126,24.2278784 L26.4029126,24.2110937 L26.4029126,24.1941204 L26.4029126,24.1771471 L26.4029126,24.1601738 L26.4029126,24.1433891 L26.4029126,24.1264158 L26.4029126,24.1094425 L26.4029126,24.0926578 L26.4029126,24.0756845 L26.4029126,24.0587112 L26.4029126,24.0419265 L26.4029126,24.0249532 L26.4029126,24.0081684 L26.4029126,23.9911951 L26.4029126,23.9742218 L26.4029126,23.9574371 L26.4029126,23.9404638 L26.4029126,23.9236791 L26.4029126,23.9067058 L26.4029126,23.8897325 L26.4029126,23.8729478 L26.4029126,23.8561631 L26.4029126,23.8391898 L26.4029126,23.8224051 L26.4029126,23.8054318 L26.4029126,23.7886471 L26.4029126,23.7718624 L26.4029126,23.7548891 L26.4029126,23.7381044 L26.4029126,23.7213197 L26.4029126,23.704535 L26.4029126,23.6875617 L26.4029126,23.6707769 L26.4029126,23.6539922 L26.4029126,23.6372075 L26.4029126,23.6204228 L26.4029126,23.6036381 L26.4029126,23.5868534 L26.4029126,23.5700687 L26.4029126,23.5534726 L26.4029126,23.5366879 L26.4029126,23.5199032 L26.4029126,23.5031184 L26.4029126,23.4865223 L26.4029126,23.4697376 L26.4029126,23.4531415 L26.4029126,23.4363568 L26.4029126,23.4197607 L26.4029126,23.402976 L26.4029126,23.3863799 L26.4029126,23.3697837 L26.4029126,23.3531876 L26.4029126,23.3365915 L26.4029126,23.3199954 L26.4029126,23.3033993 L26.4029126,23.2868032 L26.4029126,23.270207 L26.4029126,23.2536109 L26.4029126,23.2372034 L26.4029126,23.2206073 L26.4029126,23.2041998 L26.4029126,23.1876036 L26.4029126,23.1711961 L26.4029126,23.1546 L26.4029126,23.1381925 L26.4029126,23.121785 L26.4029126,23.1053774 L26.4029126,23.0889699 L26.4029126,23.0725624 L26.4029126,23.0561549 L26.4029126,23.0399359 L26.4029126,23.0235284 L26.4029126,23.0073095 L26.4029126,22.9909019 L26.4029126,22.974683 L26.4029126,22.9584641 L26.4029126,22.9422451 L26.4029126,22.9258376 L26.4029126,22.9098073 L26.4029126,22.8935883 L26.4029126,22.8773694 L26.4029126,22.8611505 L26.4029126,22.8451201 L26.4029126,22.8289012 L26.4029126,22.8128709 L26.4029126,22.7968405 L26.4029126,22.7808102 L26.4029126,22.7647799 L26.4029126,22.7487495 L26.4029126,22.7327192 L26.4029126,22.7168774 L26.4029126,22.7008471 L26.4029126,22.6850053 L26.4029126,22.668975 L26.4029126,22.6531333 L26.4029126,22.6372915 L26.4029126,22.6214498 L26.4029126,22.6057966 L26.4029126,22.5899549 L26.4029126,22.5741131 L26.4029126,22.55846 L26.4029126,22.5428068 L26.4029126,22.526965 L26.4029126,22.5113119 L26.4029126,22.4958473 L26.4029126,22.4801942 L26.4029126,22.464541 L26.4029126,22.4490765 L26.4029126,22.4336119 L26.4029126,22.4179587 L26.4029126,22.4024942 L26.4029126,22.3870296 L26.4029126,22.3717536 L26.4029126,22.3562891 L26.4029126,22.3410131 L26.4029126,22.3255485 L26.4029126,22.3102726 L26.4029126,22.2949966 L26.4029126,22.2797206 L26.4029126,22.2646333 L26.4029126,22.2493573 L26.4029126,22.2342699 L26.4029126,22.2189939 L26.4029126,22.2039066 L26.4029126,22.1888192 L26.4029126,22.1739204 L26.4029126,22.158833 L26.4029126,22.1439342 L26.4029126,22.1290354 L26.4029126,22.1139481 L26.4029126,22.0992379 L26.4029126,22.0843391 L26.4029126,22.0694403 L26.4029126,22.0547301 L26.4029126,22.0400199 L26.4029126,22.0253097 L26.4029126,22.0105995 L26.4029126,21.9958893 L26.4029126,21.9813677 L26.4029126,21.9666575 L26.4029126,21.9521359 L26.4029126,21.9376143 L26.4029126,21.9230927 L26.4029126,21.9087597 L26.4029126,21.8942381 L26.4029126,21.8799051 L26.4029126,21.8655721 L26.4029126,21.8512391 L26.4029126,21.8370947 L26.4029126,21.8227617 C26.4029126,20.3739961 25.1593354,18.8592233 23.5740291,18.8592233 C22.5856172,18.8592233 21.4946112,19.3965226 20.7451456,20.6755551 L20.7451456,20.6806471 L20.7451456,20.7000721 L20.7451456,20.7194971 L20.7451456,20.7389221 L20.7451456,20.7585357 L20.7451456,20.7779607 L20.7451456,20.7975743 L20.7451456,20.8171879 L20.7451456,20.83699 L20.7451456,20.8566036 L20.7451456,20.8762172 L20.7451456,20.8960194 L20.7451456,20.9158216 L20.7451456,20.9356238 L20.7451456,20.955426 L20.7451456,20.9752282 L20.7451456,20.9952189 L20.7451456,21.0152097 L20.7451456,21.0350119 L20.7451456,21.0550027 L20.7451456,21.0749934 L20.7451456,21.0949842 L20.7451456,21.1151636 L20.7451456,21.1351544 L20.7451456,21.1553337 L20.7451456,21.1755131 L20.7451456,21.1955039 L20.7451456,21.2158718 L20.7451456,21.2360512 L20.7451456,21.2562306 L20.7451456,21.27641 L20.7451456,21.2967779 L20.7451456,21.3171459 L20.7451456,21.3373252 L20.7451456,21.3576932 L20.7451456,21.3780612 L20.7451456,21.3984291 L20.7451456,21.4189857 L20.7451456,21.4393536 L20.7451456,21.4599102 L20.7451456,21.4802782 L20.7451456,21.5008347 L20.7451456,21.5213913 L20.7451456,21.5419478 L20.7451456,21.5625044 L20.7451456,21.5830609 L20.7451456,21.6036175 L20.7451456,21.6243626 L20.7451456,21.6449192 L20.7451456,21.6656643 L20.7451456,21.6862209 L20.7451456,21.706966 L20.7451456,21.7277112 L20.7451456,21.7484563 L20.7451456,21.7692015 L20.7451456,21.7899466 L20.7451456,21.8106917 L20.7451456,21.8316255 L20.7451456,21.8523706 L20.7451456,21.8731158 L20.7451456,21.8940495 L20.7451456,21.9149833 L20.7451456,21.9357284 L20.7451456,21.9566621 L20.7451456,21.9775959 L20.7451456,21.9985296 L20.7451456,22.0194633 L20.7451456,22.0403971 L20.7451456,22.0613308 L20.7451456,22.0822646 L20.7451456,22.1033869 L20.7451456,22.1243206 L20.7451456,22.1452544 L20.7451456,22.1663767 L20.7451456,22.1873104 L20.7451456,22.2084328 L20.7451456,22.2295551 L20.7451456,22.2504888 L20.7451456,22.2716112 L20.7451456,22.2927335 L20.7451456,22.3138558 L20.7451456,22.3347896 L20.7451456,22.3559119 L20.7451456,22.3770342 L20.7451456,22.3981566 L20.7451456,22.4194675 L20.7451456,22.4405898 L20.7451456,22.4617121 L20.7451456,22.4828345 L20.7451456,22.5039568 L20.7451456,22.5250791 L20.7451456,22.54639 L20.7451456,22.5675124 L20.7451456,22.5886347 L20.7451456,22.6099456 L20.7451456,22.631068 L20.7451456,22.6523789 L20.7451456,22.6735012 L20.7451456,22.6948121 L20.7451456,22.7159345 L20.7451456,22.7370568 L20.7451456,22.7583677 L20.7451456,22.7796786 L20.7451456,22.800801 L20.7451456,22.8221119 L20.7451456,22.8432342 L20.7451456,22.8645451 L20.7451456,22.8856675 L20.7451456,22.9069784 L20.7451456,22.9282893 L20.7451456,22.9494117 L20.7451456,22.9707226 L20.7451456,22.9918449 L20.7451456,23.0131558 L20.7451456,23.0344667 L20.7451456,23.0555891 L20.7451456,23.0769 L20.7451456,23.0980223 L20.7451456,23.1193333 L20.7451456,23.1404556 L20.7451456,23.1617665 L20.7451456,23.1828888 L20.7451456,23.2041998 L20.7451456,23.2253221 L20.7451456,23.246633 L20.7451456,23.2677553 L20.7451456,23.2890663 L20.7451456,23.3101886 L20.7451456,23.3314995 L20.7451456,23.3526218 L20.7451456,23.3737442 L20.7451456,23.3948665 L20.7451456,23.4161774 L20.7451456,23.4372998 L20.7451456,23.4584221 L20.7451456,23.4795444 L20.7451456,23.5006667 L20.7451456,23.5217891 L20.7451456,23.5429114 L20.7451456,23.5640337 L20.7451456,23.5851561 L20.7451456,23.6062784 L20.7451456,23.6274007 L20.7451456,23.6485231 L20.7451456,23.6694568 L20.7451456,23.6905791 L20.7451456,23.7117015 L20.7451456,23.7326352 L20.7451456,23.7537575 L20.7451456,23.7746913 L20.7451456,23.7958136 L20.7451456,23.8167473 L20.7451456,23.8376811 L20.7451456,23.8586148 L20.7451456,23.8795485 L20.7451456,23.9006709 L20.7451456,23.9216046 L20.7451456,23.9423498 L20.7451456,23.9632835 L20.7451456,23.9842172 L20.7451456,24.005151 L20.7451456,24.0258961 L20.7451456,24.0468299 L20.7451456,24.067575 L20.7451456,24.0885087 L20.7451456,24.1092539 L20.7451456,24.129999 L20.7451456,24.1507442 L20.7451456,24.1714893 L20.7451456,24.1922345 L20.7451456,24.2129796 L20.7451456,24.2337248 L20.7451456,24.2542813 L20.7451456,24.2750265 L20.7451456,24.295583 L20.7451456,24.3163282 L20.7451456,24.3368847 L20.7451456,24.3574413 L20.7451456,24.3779978 L20.7451456,24.3985544 L20.7451456,24.4191109 L20.7451456,24.4394789 L20.7451456,24.4600354 L20.7451456,24.4804034 L20.7451456,24.50096 L20.7451456,24.5213279 L20.7451456,24.5416959 L20.7451456,24.5620638 L20.7451456,24.5824318 L20.7451456,24.6027998 L20.7451456,24.6229791 L20.7451456,24.6433471 L20.7451456,24.6635265 L20.7451456,24.6837058 L20.7451456,24.7038852 L20.7451456,24.7240646 L20.7451456,24.7442439 L20.7451456,24.7644233 L20.7451456,24.7846027 L20.7451456,24.8045934 L20.7451456,24.8245842 L20.7451456,24.844575 L20.7451456,24.8645658 L20.7451456,24.8845566 L20.7451456,24.9045473 L20.7451456,24.9245381 L20.7451456,24.9443403 L20.7451456,24.9641425 L20.7451456,24.9839447 L20.7451456,25.0037468 L20.7451456,25.023549 L20.7451456,25.0433512 L20.7451456,25.0629648 L20.7451456,25.0825784 L20.7451456,25.1023806 L20.7451456,25.1219942 L20.7451456,25.1414192 L20.7451456,25.1610328 L20.7451456,25.1806464 L20.7451456,25.2000714 L20.7451456,25.2194964 L20.7451456,25.2389214 L20.7451456,25.2583464 L20.7451456,25.2775828 L20.7451456,25.2970078 L20.7451456,25.3162442 L20.7451456,25.3354806 L20.7451456,25.354717 L20.7451456,25.3739534 L20.7451456,25.3930012 L20.7451456,25.4122376 L20.7451456,25.4312854 L20.7451456,25.4503333 L20.7451456,25.4691925 L20.7451456,25.4882403 L20.7451456,25.5070995 L20.7451456,25.5259587 L20.7451456,25.544818 L20.7451456,25.5636772 L20.7451456,25.5825364 L20.7451456,25.601207 L20.7451456,25.6198777 L20.7451456,25.6385483 L20.7451456,25.6572189 L20.7451456,25.675701 L20.7451456,25.6943716 L20.7451456,25.7128536 L20.7451456,25.7313357 L20.7451456,25.7496291 L20.7451456,25.7681112 L20.7451456,25.7864046 L20.7451456,25.8046981 L20.7451456,25.8229915 L20.7451456,25.8410964 L20.7451456,25.8593898 L20.7451456,25.8774947 L20.7451456,25.8955995 L20.7451456,25.9135158 L20.7451456,25.9316206 L20.7451456,25.9495369 L20.7451456,25.9674532 L20.7451456,25.9853694 L20.7451456,26.0030971 L20.7451456,26.0208248 L20.7451456,26.0385524 L20.7451456,26.0562801 L20.7451456,26.0740078 L20.7451456,26.0915468 L20.7451456,26.1090859 L20.7451456,26.1264364 L20.7451456,26.1439755 L20.7451456,26.161326 L20.7451456,26.1786765 L20.7451456,26.1960269 L20.7451456,26.2131888 L20.7451456,26.2305393 L20.7451456,26.2477012 L20.7451456,26.2646745 L20.7451456,26.2818364 L20.7451456,26.2988097 L20.7451456,26.315783 L20.7451456,26.3325677 L20.7451456,26.349541 L20.7451456,26.3663257 L20.7451456,26.3831104 L20.7451456,26.3997066 L20.7451456,26.4163027 L20.7451456,26.4328988 L20.7451456,26.4494949 L20.7451456,26.4659024 L20.7451456,26.48231 L20.7451456,26.4987175 L20.7451456,26.515125 L20.7451456,26.5313439 L20.7451456,26.5475629 L20.7451456,26.5637818 L20.7451456,26.5798121 L20.7451456,26.5958425 L20.7451456,26.6118728 L20.7451456,26.6279032 L20.7451456,26.6437449 L20.7451456,26.6595867 L20.7451456,26.6752398 L20.7451456,26.690893 L20.7451456,26.7065461 L20.7451456,26.7221993 L20.7451456,26.7378524 L20.7451456,26.753317 L20.7451456,26.768593 L20.7451456,26.7840575 L20.7451456,26.7993335 L20.7451456,26.8146095 L20.7451456,26.8296968 L20.7451456,26.8447842 L20.7451456,26.8598716 L20.7451456,26.874959 L20.7451456,26.8898578 L20.7451456,26.9047566 L20.7451456,26.9194667 L20.7451456,26.9341769 L20.7451456,26.9488871 L20.7451456,26.9635973 L20.7451456,26.9781189 L20.7451456,26.9926405 L20.7451456,27.0069735 L20.7451456,27.0214951 L20.7451456,27.0358282 L20.7451456,27.0499726 L20.7451456,27.064117 L20.7451456,27.0782614 L20.7451456,27.0924058 L20.7451456,27.1063617 L20.7451456,27.1201289 L20.7451456,27.1340847 L20.7451456,27.1478519 L20.7451456,27.1616192 L20.7451456,27.1751978 L20.7451456,27.1887765 L20.7451456,27.2023551 L20.7451456,27.2157451 L20.7451456,27.2291352 L20.7451456,27.2423367 L20.7451456,27.2557267 L20.7451456,27.2687396 L20.7451456,27.281941 L20.7451456,27.2949539 L20.7451456,27.3079667 L20.7451456,27.320791 L20.7451456,27.3336153 L20.7451456,27.346251 L20.7451456,27.3590752 L20.7451456,27.3717109 L20.7451456,27.384158 L20.7451456,27.3966051 L20.7451456,27.4090522 L20.7451456,27.4213107 L20.7451456,27.4335692 L20.7451456,27.4456391 L20.7451456,27.457709 L20.7451456,27.4697789 L20.7451456,27.4818488 L20.7451456,27.4935415 L20.7451456,27.5054228 L20.7451456,27.5171155 L20.7451456,27.5288083 L20.7451456,27.5403124 L20.7451456,27.5518165 L20.7451456,27.5633206 L20.7451456,27.5746362 L20.7451456,27.5857631 L20.7451456,27.5970786 L20.7451456,27.6082056 L20.7451456,27.6191439 L20.7451456,27.6300823 L20.7451456,27.6410206 L20.7451456,27.6517704 L20.7451456,27.6625201 L20.7451456,27.6730813 L20.7451456,27.6836425 L20.7451456,27.6942036 L20.7451456,27.7045762 L20.7451456,27.7147602 L20.7451456,27.7251328 L20.7451456,27.7351282 L20.7451456,27.7453121 L20.7451456,27.7553075 L20.7451456,27.7651143 L20.7451456,27.7749211 L20.7451456,27.7847279 L20.7451456,27.7943461 L20.7451456,27.8039643 L20.7451456,27.8133939 L20.7451456,27.8228235 L20.7451456,27.8320646 L20.7451456,27.8413056 L20.7451456,27.8505466 L20.7451456,27.859599 L20.7451456,27.8686515 L20.7451456,27.8775153 L20.7451456,27.8861905 L20.7451456,27.8950544 L20.7451456,27.903541 L20.7451456,27.9122163 L20.7451456,27.9207029 L20.7451456,27.929001 L20.7451456,27.937299 L20.7451456,27.9454085 L20.7451456,27.953518 L20.7451456,27.9616274 L20.7451456,27.9695483 L20.7451456,27.9772806 L20.7451456,27.9852015 L20.7451456,27.9927451 L20.7451456,28.0002888 L20.7451456,28.0078325 L20.7451456,28.0151876 L20.7451456,28.0225427 L20.7451456,28.0297092 L20.7451456,28.0368757 L20.7451456,28.0438536 L20.7451456,28.0508316 L20.7451456,28.0576209 L20.7451456,28.0644102 L20.7451456,28.0710109 L20.7451456,28.0776117 L20.7451456,28.0840238 L20.7451456,28.0904359 L20.7451456,28.0966595 L20.7451456,28.102883 L20.7451456,28.108918 L20.7451456,28.1149529 L20.7451456,28.1207993 L20.7451456,28.1266456 L20.7451456,28.1323034 L20.7451456,28.1379612 L20.7451456,28.1434303 L20.7451456,28.1488995 L20.7451456,28.1541801 L20.7451456,28.1592721 L20.7451456,28.1645527 L20.7451456,28.1694561 L20.7451456,28.1743595 L20.7451456,28.1792629 L20.7451456,28.1839777 L20.7451456,28.1885039 L20.7451456,28.1930301 L20.7451456,28.1975563 L20.7451456,28.2018939 L20.7451456,28.206043 L20.7451456,28.210192 L20.7451456,28.2141524 L20.7451456,28.2181129 L20.7451456,28.2218847 L20.7451456,28.2256566 L20.7451456,28.2292398 L20.7451456,28.2328231 L20.7451456,28.2362177 L20.7451456,28.2394238 L20.7451456,28.2426299 L20.7451456,28.2456473 L20.7451456,28.2486648 L20.7451456,28.2516823 L20.7451456,28.2543226 L20.7451456,28.2569629 L20.7451456,28.2596032 L20.7451456,28.2620549 L20.7451456,28.2645066 L20.7451456,28.2667697 L20.7451456,28.2688442 L20.7451456,28.2709187 L20.7451456,28.2728046 L20.7451456,28.2746905 L20.7451456,28.2763879 L20.7451456,28.2778966 L20.7451456,28.2794053 L20.7451456,28.2807255 L20.7451456,28.2820456 L20.7451456,28.2831772 L20.7451456,28.2843087 L20.7451456,28.2852517 L20.7451456,28.2860061 L20.7451456,28.2867604 L20.7451456,28.2875148 L20.7451456,28.287892 L20.7451456,28.2882692 L20.7451456,28.2886464 L20.7451456,28.288835 L20.7451456,28.288835 C20.7451456,29.3304299 19.9008182,30.1747573 18.8592233,30.1747573 C17.8176284,30.1747573 16.973301,29.3304299 16.973301,28.288835 L16.973301,28.288835 L16.973301,28.2886464 L16.973301,28.2882692 L16.973301,28.287892 L16.973301,28.2875148 L16.973301,28.2867604 L16.973301,28.2860061 L16.973301,28.2852517 L16.973301,28.2843087 L16.973301,28.2831772 L16.973301,28.2820456 L16.973301,28.2807255 L16.973301,28.2794053 L16.973301,28.2778966 L16.973301,28.2763879 L16.973301,28.2746905 L16.973301,28.2728046 L16.973301,28.2709187 L16.973301,28.2688442 L16.973301,28.2667697 L16.973301,28.2645066 L16.973301,28.2620549 L16.973301,28.2596032 L16.973301,28.2569629 L16.973301,28.2543226 L16.973301,28.2516823 L16.973301,28.2486648 L16.973301,28.2456473 L16.973301,28.2426299 L16.973301,28.2394238 L16.973301,28.2362177 L16.973301,28.2328231 L16.973301,28.2292398 L16.973301,28.2256566 L16.973301,28.2218847 L16.973301,28.2181129 L16.973301,28.2141524 L16.973301,28.210192 L16.973301,28.206043 L16.973301,28.2018939 L16.973301,28.1975563 L16.973301,28.1930301 L16.973301,28.1885039 L16.973301,28.1839777 L16.973301,28.1792629 L16.973301,28.1743595 L16.973301,28.1694561 L16.973301,28.1645527 L16.973301,28.1592721 L16.973301,28.1541801 L16.973301,28.1488995 L16.973301,28.1434303 L16.973301,28.1379612 L16.973301,28.1323034 L16.973301,28.1266456 L16.973301,28.1207993 L16.973301,28.1149529 L16.973301,28.108918 L16.973301,28.102883 L16.973301,28.0966595 L16.973301,28.0904359 L16.973301,28.0840238 L16.973301,28.0776117 L16.973301,28.0710109 L16.973301,28.0644102 L16.973301,28.0576209 L16.973301,28.0508316 L16.973301,28.0438536 L16.973301,28.0368757 L16.973301,28.0297092 L16.973301,28.0225427 L16.973301,28.0151876 L16.973301,28.0078325 L16.973301,28.0002888 L16.973301,27.9927451 L16.973301,27.9852015 L16.973301,27.9772806 L16.973301,27.9695483 L16.973301,27.9616274 L16.973301,27.953518 L16.973301,27.9454085 L16.973301,27.937299 L16.973301,27.929001 L16.973301,27.9207029 L16.973301,27.9122163 L16.973301,27.903541 L16.973301,27.8950544 L16.973301,27.8861905 L16.973301,27.8775153 L16.973301,27.8686515 L16.973301,27.859599 L16.973301,27.8505466 L16.973301,27.8413056 L16.973301,27.8320646 L16.973301,27.8228235 L16.973301,27.8133939 L16.973301,27.8039643 L16.973301,27.7943461 L16.973301,27.7847279 L16.973301,27.7749211 L16.973301,27.7651143 L16.973301,27.7553075 L16.973301,27.7453121 L16.973301,27.7351282 L16.973301,27.7251328 L16.973301,27.7147602 L16.973301,27.7045762 L16.973301,27.6942036 L16.973301,27.6836425 L16.973301,27.6730813 L16.973301,27.6625201 L16.973301,27.6517704 L16.973301,27.6410206 L16.973301,27.6300823 L16.973301,27.6191439 L16.973301,27.6082056 L16.973301,27.5970786 L16.973301,27.5857631 L16.973301,27.5746362 L16.973301,27.5633206 L16.973301,27.5518165 L16.973301,27.5403124 L16.973301,27.5288083 L16.973301,27.5171155 L16.973301,27.5054228 L16.973301,27.4935415 L16.973301,27.4818488 L16.973301,27.4697789 L16.973301,27.457709 L16.973301,27.4456391 L16.973301,27.4335692 L16.973301,27.4213107 L16.973301,27.4090522 L16.973301,27.3966051 L16.973301,27.384158 L16.973301,27.3717109 L16.973301,27.3590752 L16.973301,27.346251 L16.973301,27.3336153 L16.973301,27.320791 L16.973301,27.3079667 L16.973301,27.2949539 L16.973301,27.281941 L16.973301,27.2687396 L16.973301,27.2557267 L16.973301,27.2423367 L16.973301,27.2291352 L16.973301,27.2157451 L16.973301,27.2023551 L16.973301,27.1887765 L16.973301,27.1751978 L16.973301,27.1616192 L16.973301,27.1478519 L16.973301,27.1340847 L16.973301,27.1201289 L16.973301,27.1063617 L16.973301,27.0924058 L16.973301,27.0782614 L16.973301,27.064117 L16.973301,27.0499726 L16.973301,27.0358282 L16.973301,27.0214951 L16.973301,27.0069735 L16.973301,26.9926405 L16.973301,26.9781189 L16.973301,26.9635973 L16.973301,26.9488871 L16.973301,26.9341769 L16.973301,26.9194667 L16.973301,26.9047566 L16.973301,26.8898578 L16.973301,26.874959 L16.973301,26.8598716 L16.973301,26.8447842 L16.973301,26.8296968 L16.973301,26.8146095 L16.973301,26.7993335 L16.973301,26.7840575 L16.973301,26.768593 L16.973301,26.753317 L16.973301,26.7378524 L16.973301,26.7221993 L16.973301,26.7065461 L16.973301,26.690893 L16.973301,26.6752398 L16.973301,26.6595867 L16.973301,26.6437449 L16.973301,26.6279032 L16.973301,26.6118728 L16.973301,26.5958425 L16.973301,26.5798121 L16.973301,26.5637818 L16.973301,26.5475629 L16.973301,26.5313439 L16.973301,26.515125 L16.973301,26.4987175 L16.973301,26.48231 L16.973301,26.4659024 L16.973301,26.4494949 L16.973301,26.4328988 L16.973301,26.4163027 L16.973301,26.3997066 L16.973301,26.3831104 L16.973301,26.3663257 L16.973301,26.349541 L16.973301,26.3325677 L16.973301,26.315783 L16.973301,26.2988097 L16.973301,26.2818364 L16.973301,26.2646745 L16.973301,26.2477012 L16.973301,26.2305393 L16.973301,26.2131888 L16.973301,26.1960269 L16.973301,26.1786765 L16.973301,26.161326 L16.973301,26.1439755 L16.973301,26.1264364 L16.973301,26.1090859 L16.973301,26.0915468 L16.973301,26.0740078 L16.973301,26.0562801 L16.973301,26.0385524 L16.973301,26.0208248 L16.973301,26.0030971 L16.973301,25.9853694 L16.973301,25.9674532 L16.973301,25.9495369 L16.973301,25.9316206 L16.973301,25.9135158 L16.973301,25.8955995 L16.973301,25.8774947 L16.973301,25.8593898 L16.973301,25.8410964 L16.973301,25.8229915 L16.973301,25.8046981 L16.973301,25.7864046 L16.973301,25.7681112 L16.973301,25.7496291 L16.973301,25.7313357 L16.973301,25.7128536 L16.973301,25.6943716 L16.973301,25.675701 L16.973301,25.6572189 L16.973301,25.6385483 L16.973301,25.6198777 L16.973301,25.601207 L16.973301,25.5825364 L16.973301,25.5636772 L16.973301,25.544818 L16.973301,25.5259587 L16.973301,25.5070995 L16.973301,25.4882403 L16.973301,25.4691925 L16.973301,25.4503333 L16.973301,25.4312854 L16.973301,25.4122376 L16.973301,25.3930012 L16.973301,25.3739534 L16.973301,25.354717 L16.973301,25.3354806 L16.973301,25.3162442 L16.973301,25.2970078 L16.973301,25.2775828 L16.973301,25.2583464 L16.973301,25.2389214 L16.973301,25.2194964 L16.973301,25.2000714 L16.973301,25.1806464 L16.973301,25.1610328 L16.973301,25.1414192 L16.973301,25.1219942 L16.973301,25.1023806 L16.973301,25.0825784 L16.973301,25.0629648 L16.973301,25.0433512 L16.973301,25.023549 L16.973301,25.0037468 L16.973301,24.9839447 L16.973301,24.9641425 L16.973301,24.9443403 L16.973301,24.9245381 L16.973301,24.9045473 L16.973301,24.8845566 L16.973301,24.8645658 L16.973301,24.844575 L16.973301,24.8245842 L16.973301,24.8045934 L16.973301,24.7846027 L16.973301,24.7644233 L16.973301,24.7442439 L16.973301,24.7240646 L16.973301,24.7038852 L16.973301,24.6837058 L16.973301,24.6635265 L16.973301,24.6433471 L16.973301,24.6229791 L16.973301,24.6027998 L16.973301,24.5824318 L16.973301,24.5620638 L16.973301,24.5416959 L16.973301,24.5213279 L16.973301,24.50096 L16.973301,24.4804034 L16.973301,24.4600354 L16.973301,24.4394789 L16.973301,24.4191109 L16.973301,24.3985544 L16.973301,24.3779978 L16.973301,24.3574413 L16.973301,24.3368847 L16.973301,24.3163282 L16.973301,24.295583 L16.973301,24.2750265 L16.973301,24.2542813 L16.973301,24.2337248 L16.973301,24.2129796 L16.973301,24.1922345 L16.973301,24.1714893 L16.973301,24.1507442 L16.973301,24.129999 L16.973301,24.1092539 L16.973301,24.0885087 L16.973301,24.067575 L16.973301,24.0468299 L16.973301,24.0258961 L16.973301,24.005151 L16.973301,23.9842172 L16.973301,23.9632835 L16.973301,23.9423498 L16.973301,23.9216046 L16.973301,23.9006709 L16.973301,23.8795485 L16.973301,23.8586148 L16.973301,23.8376811 L16.973301,23.8167473 L16.973301,23.7958136 L16.973301,23.7746913 L16.973301,23.7537575 L16.973301,23.7326352 L16.973301,23.7117015 L16.973301,23.6905791 L16.973301,23.6694568 L16.973301,23.6485231 L16.973301,23.6274007 L16.973301,23.6062784 L16.973301,23.5851561 L16.973301,23.5640337 L16.973301,23.5429114 L16.973301,23.5217891 L16.973301,23.5006667 L16.973301,23.4795444 L16.973301,23.4584221 L16.973301,23.4372998 L16.973301,23.4161774 L16.973301,23.3948665 L16.973301,23.3737442 L16.973301,23.3526218 L16.973301,23.3314995 L16.973301,23.3101886 L16.973301,23.2890663 L16.973301,23.2677553 L16.973301,23.246633 L16.973301,23.2253221 L16.973301,23.2041998 L16.973301,23.1828888 L16.973301,23.1617665 L16.973301,23.1404556 L16.973301,23.1193333 L16.973301,23.0980223 L16.973301,23.0769 L16.973301,23.0555891 L16.973301,23.0344667 L16.973301,23.0131558 L16.973301,22.9918449 L16.973301,22.9707226 L16.973301,22.9494117 L16.973301,22.9282893 L16.973301,22.9069784 L16.973301,22.8856675 L16.973301,22.8645451 L16.973301,22.8432342 L16.973301,22.8221119 L16.973301,22.800801 L16.973301,22.7796786 L16.973301,22.7583677 L16.973301,22.7370568 L16.973301,22.7159345 L16.973301,22.6948121 L16.973301,22.6735012 L16.973301,22.6523789 L16.973301,22.631068 L16.973301,22.6099456 L16.973301,22.5886347 L16.973301,22.5675124 L16.973301,22.54639 L16.973301,22.5250791 L16.973301,22.5039568 L16.973301,22.4828345 L16.973301,22.4617121 L16.973301,22.4405898 L16.973301,22.4194675 L16.973301,22.3981566 L16.973301,22.3770342 L16.973301,22.3559119 L16.973301,22.3347896 L16.973301,22.3138558 L16.973301,22.2927335 L16.973301,22.2716112 L16.973301,22.2504888 L16.973301,22.2295551 L16.973301,22.2084328 L16.973301,22.1873104 L16.973301,22.1663767 L16.973301,22.1452544 L16.973301,22.1243206 L16.973301,22.1033869 L16.973301,22.0822646 L16.973301,22.0613308 L16.973301,22.0403971 L16.973301,22.0194633 L16.973301,21.9985296 L16.973301,21.9775959 L16.973301,21.9566621 L16.973301,21.9357284 L16.973301,21.9149833 L16.973301,21.8940495 L16.973301,21.8731158 L16.973301,21.8523706 L16.973301,21.8316255 L16.973301,21.8106917 L16.973301,21.7899466 L16.973301,21.7692015 L16.973301,21.7484563 L16.973301,21.7277112 L16.973301,21.706966 L16.973301,21.6862209 L16.973301,21.6656643 L16.973301,21.6449192 L16.973301,21.6243626 L16.973301,21.6036175 L16.973301,21.5830609 L16.973301,21.5625044 L16.973301,21.5419478 L16.973301,21.5213913 L16.973301,21.5008347 L16.973301,21.4802782 L16.973301,21.4599102 L16.973301,21.4393536 L16.973301,21.4189857 L16.973301,21.3984291 L16.973301,21.3780612 L16.973301,21.3576932 L16.973301,21.3373252 L16.973301,21.3171459 L16.973301,21.2967779 L16.973301,21.27641 L16.973301,21.2562306 L16.973301,21.2360512 L16.973301,21.2158718 L16.973301,21.1955039 L16.973301,21.1755131 L16.973301,21.1553337 L16.973301,21.1351544 L16.973301,21.1151636 L16.973301,21.0949842 L16.973301,21.0749934 L16.973301,21.0550027 L16.973301,21.0350119 L16.973301,21.0152097 L16.973301,20.9952189 L16.973301,20.9752282 L16.973301,20.955426 L16.973301,20.9356238 L16.973301,20.9158216 L16.973301,20.8960194 L16.973301,20.8762172 L16.973301,20.8566036 L16.973301,20.83699 L16.973301,20.8171879 L16.973301,20.7975743 L16.973301,20.7779607 L16.973301,20.7585357 L16.973301,20.7389221 L16.973301,20.7194971 L16.973301,20.7000721 L16.973301,20.6806471 L16.973301,20.6612221 L16.973301,20.6417971 L16.973301,20.6223721 L16.973301,20.6031357 L16.973301,20.5838993 L16.973301,20.5646629 L16.973301,20.5454265 L16.973301,20.5263786 L16.973301,20.5071422 L16.973301,20.4880944 L16.973301,20.4690466 L16.973301,20.4499988 L16.973301,20.4311396 L16.973301,20.4120917 L16.973301,20.3932325 L16.973301,20.3743733 L16.973301,20.3555141 L16.973301,20.3366549 L16.973301,20.3179842 L16.973301,20.2993136 L16.973301,20.280643 L16.973301,20.2619723 L16.973301,20.2433017 L16.973301,20.2248197 L16.973301,20.2063376 L16.973301,20.1989825 L16.973301,20.1914388 L16.973301,20.1840837 L16.973301,20.17654 L16.973301,20.169185 L16.973301,20.1616413 L16.973301,20.1540976 L16.973301,20.1465539 L16.973301,20.1390102 L16.973301,20.1314665 L16.973301,20.1239228 L16.973301,20.1163791 L16.973301,20.1088354 L16.973301,20.1012917 L16.973301,20.0935595 L16.973301,20.0860158 L16.973301,20.0782835 L16.973301,20.0705512 L16.973301,20.0630075 L16.973301,20.0552752 L16.973301,20.047543 L16.973301,20.0398107 L16.973301,20.0320784 L16.973301,20.0243461 L16.973301,20.0166138 L16.973301,20.0088816 L16.973301,20.0011493 L16.973301,19.9932284 L16.973301,19.9854961 L16.973301,19.9775752 L16.973301,19.969843 L16.973301,19.9619221 L16.973301,19.9540012 L16.973301,19.9462689 L16.973301,19.9383481 L16.973301,19.9304272 L16.973301,19.9225063 L16.973301,19.9145854 L16.973301,19.9066646 L16.973301,19.8987437 L16.973301,19.8908228 L16.973301,19.8827133 L16.973301,19.8747925 L16.973301,19.8668716 L16.973301,19.8587621 L16.973301,19.8508413 L16.973301,19.8427318 L16.973301,19.8348109 L16.973301,19.8267015 L16.973301,19.818592 L16.973301,19.8106711 L16.973301,19.8025617 L16.973301,19.7944522 L16.973301,19.7863427 L16.973301,19.7782333 L16.973301,19.7701238 L16.973301,19.7620143 L16.973301,19.7539049 L16.973301,19.7457954 L16.973301,19.7374973 L16.973301,19.7293879 L16.973301,19.7212784 L16.973301,19.7131689 L16.973301,19.7048709 L16.973301,19.6967614 L16.973301,19.6884633 L16.973301,19.6803539 L16.973301,19.6720558 L16.973301,19.6637578 L16.973301,19.6556483 L16.973301,19.6473502 L16.973301,19.6390522 L16.973301,19.6309427 L16.973301,19.6226447 L16.973301,19.6143466 L16.973301,19.6060485 L16.973301,19.5977505 L16.973301,19.5894524 L16.973301,19.5811544 L16.973301,19.5728563 L16.973301,19.5645583 L16.973301,19.5562602 L16.973301,19.5479621 L16.973301,19.5394755 L16.973301,19.5311774 L16.973301,19.5228794 L16.973301,19.5145813 L16.973301,19.5060947 L16.973301,19.4977966 L16.973301,19.4894985 L16.973301,19.4810119 L16.973301,19.4727138 L16.973301,19.4642272 L16.973301,19.4559291 L16.973301,19.4474425 L16.973301,19.4391444 L16.973301,19.4306578 L16.973301,19.4223597 L16.973301,19.4138731 L16.973301,19.4053864 L16.973301,19.3970883 L16.973301,19.3886017 L16.973301,19.380115 L16.973301,19.371817 L16.973301,19.3633303 L16.973301,19.3548437 L16.973301,19.346357 L16.973301,19.338059 L16.973301,19.3295723 L16.973301,19.3210857 L16.973301,19.312599 L16.973301,19.3041124 L16.973301,19.2956257 L16.973301,19.2873277 L16.973301,19.278841 L16.973301,19.2703544 L16.973301,19.2618677 L16.973301,19.2533811 L16.973301,19.2448944 L16.973301,19.2364078 L16.973301,19.2279211 L16.973301,19.2194345 L16.973301,19.2109478 L16.973301,19.2024612 L16.973301,19.1939745 L16.973301,19.1854879 L16.973301,19.1770012 L16.973301,19.1685146 L16.973301,19.1600279 L16.973301,19.1515413 L16.973301,19.1430546 L16.973301,19.134568 L16.973301,19.1260813 L16.973301,19.1175947 L16.973301,19.109108 L16.973301,19.1006214 L16.973301,19.0921347 L16.973301,19.0836481 L16.973301,19.0751614 L16.973301,19.0666748 L16.973301,19.0581881 L16.973301,19.0495129 L16.973301,19.0410262 L16.973301,19.0325396 L16.973301,19.0240529 L16.973301,19.0155663 L16.973301,19.0070796 L16.973301,18.998593 L16.973301,18.9901063 L16.973301,18.9816197 L16.973301,18.973133 L16.973301,18.964835 L16.973301,18.9563483 L16.973301,18.9478617 L16.973301,18.939375 L16.973301,18.9308883 L16.973301,18.9224017 L16.973301,18.913915 L16.973301,18.9054284 L16.973301,18.8969417 L16.973301,18.8884551 L16.973301,18.880157 L16.973301,18.8716704 L16.973301,18.8631837 L16.973301,18.8546971 L16.973301,18.846399 L16.973301,18.8379124 L16.973301,18.8294257 L16.973301,18.8209391 L16.973301,18.812641 L16.973301,18.8041544 L16.973301,18.7956677 L16.973301,18.7873697 L16.973301,18.778883 L16.973301,18.770585 L16.973301,18.7620983 L16.973301,18.7538002 L16.973301,18.7453136 L16.973301,18.7370155 L16.973301,18.7285289 L16.973301,18.7202308 L16.973301,18.7119328 L16.973301,18.7034461 L16.973301,18.6951481 L16.973301,18.68685 L16.973301,18.6783633 L16.973301,18.6700653 L16.973301,18.6617672 L16.973301,18.6534692 L16.973301,18.6451711 L16.973301,18.6368731 L16.973301,18.628575 L16.973301,18.6202769 L16.973301,18.6119789 L16.973301,18.6036808 L16.973301,18.5953828 L16.973301,18.5870847 L16.973301,18.5787867 L16.973301,18.5706772 L16.973301,18.5623791 L16.973301,18.5540811 L16.973301,18.545783 L16.973301,18.5376735 L16.973301,18.5293755 L16.973301,18.521266 L16.973301,18.512968 L16.973301,18.5048585 L16.973301,18.4965604 L16.973301,18.488451 L16.973301,18.4803415 L16.973301,18.472232 L16.973301,18.463934 L16.973301,18.4558245 L16.973301,18.447715 L16.973301,18.4396056 L16.973301,18.4314961 L16.973301,18.4233867 L16.973301,18.4152772 L16.973301,18.4071677 L16.973301,18.3992468 L16.973301,18.3911374 L16.973301,18.3830279 L16.973301,18.375107 L16.973301,18.3669976 L16.973301,18.3588881 L16.973301,18.3509672 L16.973301,18.3430464 L16.973301,18.3349369 L16.973301,18.327016 L16.973301,18.3190951 L16.973301,18.3111743 L16.973301,18.3032534 L16.973301,18.2951439 L16.973301,18.2872231 L16.973301,18.2794908 L16.973301,18.2715699 L16.973301,18.263649 L16.973301,18.2557282 L16.973301,18.2479959 L16.973301,18.240075 L16.973301,18.2321541 L16.973301,18.2244218 L16.973301,18.2166896 L16.973301,18.2087687 L16.973301,18.2010364 L16.973301,18.1933041 L16.973301,18.1855718 L16.973301,18.1778396 L16.973301,18.1701073 L16.973301,18.162375 L16.973301,18.1546427 L16.973301,18.1469104 L16.973301,18.1393667 L16.973301,18.1316345 L16.973301,18.1239022 L16.973301,18.1163585 L16.973301,18.1088148 L16.973301,18.1010825 L16.973301,18.0935388 L16.973301,18.0859951 L16.973301,18.0784515 L16.973301,18.0709078 L16.973301,18.0633641 L16.973301,18.0558204 L16.973301,18.0482767 L16.973301,18.0409216 L16.973301,18.0333779 L16.973301,18.0260228 L16.973301,18.0184791 L16.973301,18.011124 L16.973301,18.0037689 L16.973301,17.9962252 L16.973301,17.9888701 L16.973301,17.981515 L16.973301,17.9743485 L16.973301,17.9669934 L16.973301,17.9596383 L16.973301,17.9522833 L16.973301,17.9451167 L16.973301,17.9377617 L16.973301,17.9305951 L16.973301,17.9234286 L16.973301,17.9162621 L16.973301,17.9090956 L16.973301,17.9019291 L16.973301,17.8947626 L16.973301,17.8875961 L16.973301,17.8804296 L16.973301,17.8734517 L16.973301,17.8662852 L16.973301,17.8593073 L16.973301,17.8523294 L16.973301,17.8451629 L16.973301,17.838185 L16.973301,17.831207 L16.973301,17.8242291 L16.973301,17.8174398 L16.973301,17.8104619 L16.973301,17.803484 L16.973301,17.7966947 L16.973301,17.7897167 L16.973301,17.7829274 L16.973301,17.7761381 L16.973301,17.7693488 L16.973301,17.7625595 L16.973301,17.7557701 L16.973301,17.7489808 L16.973301,17.7423801 L16.973301,17.7355908 L16.973301,17.72899 L16.973301,17.7222007 L16.973301,17.7156 L16.973301,17.7089993 L16.973301,17.7023985 L16.973301,17.6957978 L16.973301,17.6893857 L16.973301,17.682785 L16.973301,17.6763728 L16.973301,17.6697721 L16.973301,17.66336 L16.973301,17.6569478 L16.973301,17.6505357 L16.973301,17.6441235 L16.973301,17.6377114 L16.973301,17.6312993 L16.973301,17.6250757 L16.973301,17.6186636 L16.973301,17.61244 L16.973301,17.6062165 L16.973301,17.599993 L16.973301,17.5937694 L16.973301,17.5875459 L16.973301,17.5813223 L16.973301,17.5752874 L16.973301,17.5690638 L16.973301,17.5630289 L16.973301,17.5569939 L16.973301,17.550959 L16.973301,17.544924 L16.973301,17.5388891 L16.973301,17.5328541 L16.973301,17.5270078 L16.973301,17.5209728 L16.973301,17.5151265 L16.973301,17.5092801 L16.973301,17.5034337 L16.973301,17.4975874 L16.973301,17.491741 L16.973301,17.4860833 L16.973301,17.4802369 L16.973301,17.4745791 L16.973301,17.4689214 L16.973301,17.4632636 L16.973301,17.4576058 L16.973301,17.4519481 L16.973301,17.4462903 L16.973301,17.4408211 L16.973301,17.4351633 L16.973301,17.4296942 L16.973301,17.424225 L16.973301,17.4187558 L16.973301,17.4132867 L16.973301,17.4080061 L16.973301,17.4025369 L16.973301,17.3972563 L16.973301,17.3917871 L16.973301,17.3865066 L16.973301,17.381226 L16.973301,17.376134 L16.973301,17.3708534 L16.973301,17.3657614 L16.973301,17.3604808 L16.973301,17.3553888 L16.973301,17.3502968 L16.973301,17.3452049 L16.973301,17.3401129 L16.973301,17.3352095 L16.973301,17.3301175 L16.973301,17.3252141 L16.973301,17.3203107 L16.973301,17.3154073 L16.973301,17.3105039 L16.973301,17.3057891 L16.973301,17.3008857 L16.973301,17.2961709 L16.973301,17.2914561 L16.973301,17.2867413 L16.973301,17.2820265 L16.973301,17.2773117 L16.973301,17.2727854 L16.973301,17.2680706 L16.973301,17.2635444 L16.973301,17.2590182 L16.973301,17.254492 L16.973301,17.2499658 L16.973301,17.2456282 L16.973301,17.2411019 L16.973301,17.2367643 L16.973301,17.2324267 L16.973301,17.2280891 L16.973301,17.22394 L16.973301,17.2196024 L16.973301,17.2154534 L16.973301,17.2111158 L16.973301,17.2069667 L16.973301,17.2028177 L16.973301,17.1988573 L16.973301,17.1947083 L16.973301,17.1907478 L16.973301,17.1867874 L16.973301,17.1828269 L16.973301,17.1788665 L16.973301,17.1749061 L16.973301,17.1711342 L16.973301,17.1671738 L16.973301,17.1634019 L16.973301,17.1596301 L16.973301,17.1560468 L16.973301,17.152275 L16.973301,17.1486917 L16.973301,17.1449199 L16.973301,17.1413367 L16.973301,17.137942 L16.973301,17.1343587 L16.973301,17.1307755 L16.973301,17.1273808 L16.973301,17.1239862 L16.973301,17.1205915 L16.973301,17.1171968 L16.973301,17.1139908 L16.973301,17.1105961 L16.973301,17.10739 L16.973301,17.104184 L16.973301,17.1009779 L16.973301,17.0979604 L16.973301,17.0947544 L16.973301,17.0917369 L16.973301,17.0887194 L16.973301,17.0857019 L16.973301,17.0826845 L16.973301,17.0798556 L16.973301,17.0770267 L16.973301,17.0741978 L16.973301,17.0713689 L16.973301,17.06854 L16.973301,17.0657112 L16.973301,17.0630709 L16.973301,17.0604306 L16.973301,17.0577903 L16.973301,17.05515 L16.973301,17.0526983 L16.973301,17.0502466 L16.973301,17.0476063 L16.973301,17.0453432 L16.973301,17.0428915 L16.973301,17.0404398 L16.973301,17.0381767 L16.973301,17.0359136 L16.973301,17.0336505 L16.973301,17.0313874 L16.973301,17.0293129 L16.973301,17.0272383 L16.973301,17.0251638 L16.973301,17.0230893 L16.973301,17.0210148 L16.973301,17.0191289 L16.973301,17.0170544 L16.973301,17.0151684 L16.973301,17.0134711 L16.973301,17.0115852 L16.973301,17.0098879 L16.973301,17.0081905 L16.973301,17.0064932 L16.973301,17.0047959 L16.973301,17.0030985 L16.973301,17.0015898 L16.973301,17.0000811 L16.973301,16.9985723 L16.973301,16.9970636 L16.973301,16.9957434 L16.973301,16.9944233 L16.973301,16.9931032 L16.973301,16.991783 L16.973301,16.9904629 L16.973301,16.9893313 L16.973301,16.9881998 L16.973301,16.9870682 L16.973301,16.9859367 L16.973301,16.9849937 L16.973301,16.9840507 L16.973301,16.9831078 L16.973301,16.9821648 L16.973301,16.9812218 L16.973301,16.9804675 L16.973301,16.9797131 L16.973301,16.9789587 L16.973301,16.978393 L16.973301,16.9776386 L16.973301,16.9770728 L16.973301,16.976507 L16.973301,16.9759413 L16.973301,16.9755641 L16.973301,16.9751869 L16.973301,16.9748097 L16.973301,16.9744325 L16.973301,16.9740553 L16.973301,16.9738667 L16.973301,16.9736782 L16.973301,16.9734896 L16.973301,16.973301 L16.973301,16.973301 C16.973301,15.9317061 17.8176284,15.0873786 18.8592233,15.0873786 Z" id="Shape"></path>
                    </g>
                </g>
            </g>
        </g>
    </g>
</svg>