<svg width="1191px" height="208px" viewBox="0 0 1191 208" version="1.1" xmlns="http://www.w3.org/2000/svg" >
    <mask id="mask-2" fill="white"/>
    <path d="M6.07994539,116.788616 C-2.34907252,112.599652 0.223078936,133.333136 0.901924014,137.368538 C2.66811479,147.704448 7.15446017,157.723656 13.6806231,165.916292 C31.8077262,188.111752 62.2071548,197.995659 90.1973547,195.667093 C110.589264,193.955168 129.828778,185.012985 146.153286,172.931923 C163.97931,159.715165 179.853245,143.781897 193.727346,126.470767 C206.28404,110.827859 216.843588,93.5625279 229.10726,77.6999041 C240.859187,62.4769698 254.981253,48.4262508 272.213474,39.5942249 C294.840947,27.7723914 323.389143,25.6243278 346.249661,37.9586313 C361.224536,45.7187208 372.243311,59.016001 381.829498,72.5778978 C387.082715,79.7668466 385.945836,67.7576262 385.790373,64.6594575 C383.129897,27.0506827 348.314544,-0.632876609 311.667354,0.0110036716 C243.779862,2.39255249 199.744151,92.8785361 149.292087,130.489107 C115.296122,157.112105 78.5680671,161.153194 40.6228653,139.810853 C33.1340851,135.681458 25.8121068,130.749233 18.9410011,125.660753 C14.7566299,122.683518 10.6701317,119.13125 6.07994539,116.788616" id="Fill-1" fill="#FFFFFF" mask="url(#mask-2)"/>
    <path d="M231.816801,109.227065 C221.089921,107.735698 244.342328,122.921072 245.964255,123.954017 C254.157755,129.206119 262.878419,133.87083 271.824325,137.711759 C296.848122,148.218656 327.382875,154.424407 352.958097,142.500652 C367.038457,135.562682 377.112074,122.422254 384.080518,108.685457 C385.820757,105.353221 390.513112,93.6589758 382.314819,97.9242141 C376.713706,101.175957 371.823964,105.626718 366.355541,109.093908 C354.63903,117.179428 340.488581,120.729803 326.425594,121.670585 C305.116204,123.292118 283.755595,120.121167 262.922449,115.842165 C252.532534,113.840908 242.261829,110.915327 231.816801,109.227065" id="Fill-4" fill="#FFFFFF"/>
    <path d="M224.489049,129.629812 C215.329546,125.274979 226.934252,139.768923 228.386372,141.650086 C245.155832,162.25901 266.541951,180.799852 291.145506,191.214847 C316.278925,201.833236 351.214378,205.121377 374.154824,187.921313 C386.034473,179.030121 394.50333,165.506413 397.109017,150.858501 C398.791252,141.032418 398.264676,129.665758 394.030845,120.535525 C391.762263,116.129769 389.667612,115.515096 387.713422,120.557692 C386.749625,123.006799 385.992036,125.635036 385.175574,128.136863 C382.716324,135.948484 379.3916,143.683121 374.157812,150.052117 C361.502941,165.75384 340.798802,169.979268 321.582644,168.413829 C297.924357,166.457779 275.338647,157.604329 254.448622,146.677406 C248.365498,143.472239 242.322121,139.975012 236.425181,136.439743 C232.499766,134.13382 228.594373,131.608029 224.489049,129.629812" id="Fill-6" fill="#FFFFFF"/>
    <path d="M9.51227783,103.601874 C1.95029166,106.958153 2.87282657,88.1076851 3.24249587,84.017267 C4.75662081,67.7054122 10.4538771,51.6981313 19.5996921,38.1143157 C38.9788828,8.59481341 77.3089124,-6.31200424 111.484705,2.53257034 C138.56946,9.18367611 160.183646,29.4782593 174.878671,52.5166922 C178.853584,58.7755211 182.521978,65.4117114 185.326818,72.2841627 C186.273183,74.4349733 190.836707,86.4965162 185.327413,83.4934357 C178.349868,77.9800819 173.108964,70.4349429 166.613389,64.3688219 C156.195924,53.9605095 143.936963,44.9760279 130.025065,39.9095415 C96.8873848,27.2546613 59.7006194,40.1583315 37.1680692,66.5244054 C30.6200671,73.8592362 25.0324308,82.1358298 19.7772287,90.4270405 C16.6420399,94.9395664 14.0889089,100.368797 9.51227783,103.601874" id="Fill-8" fill="#FFFFFF"/>
    <path d="M7.16046358,120.943256 C5.89923701,125.861755 12.4110891,123.551729 14.8716471,122.788332 C26.0657057,118.805143 36.7547355,113.359179 47.6300488,108.595763 C66.9192205,100.020772 86.7490034,91.5641987 107.830145,88.8568449 C130.443418,85.8267004 149.310685,91.0779089 170.526382,97.9340541 C172.106952,98.2541398 175.370054,99.528772 176,97.9638085 C176.044622,95.5573052 173.184885,92.47757 171.804353,90.5624658 C139.244495,51.3491143 89.5037877,50.6572484 48.7869207,77.5585716 C36.9580627,85.3106562 26.1835159,94.8507123 17.0337925,105.660892 C13.2886852,110.357586 9.10702237,115.164582 7.16046358,120.943256" id="Fill-10" fill="#FFFFFF"/>
    <path d="M589.411838,46.4007448 C574.984402,32.600114 555.837784,25 535.499701,25 C515.161618,25 496.015299,32.600114 481.587863,46.4007448 C467.021592,60.3334919 459,78.897167 459,98.671361 L459,183 L483.711674,183 L483.711674,98.671361 C483.711674,71.6301768 506.944041,49.6305845 535.5,49.6305845 C564.056258,49.6305845 587.288026,71.6301768 587.288026,98.671361 L587.288026,183 L612,183 L612,98.671361 C612,78.897167 603.978109,60.3334919 589.411838,46.4007448" id="Fill-12" fill="#FFFFFF"/>
    <path d="M988.411882,46.4007448 C973.984474,32.600114 954.837894,25 934.49985,25 C914.161807,25 895.015526,32.600114 880.588118,46.4007448 C866.021876,60.3334919 858,78.897167 858,98.671361 L858,183 L882.711925,183 L882.711925,98.671361 C882.711925,71.6301768 905.944247,49.6305845 934.50015,49.6305845 C963.056352,49.6305845 986.288075,71.6301768 986.288075,98.671361 L986.288075,183 L1011,183 L1011,98.671361 C1011,78.897167 1002.97812,60.3334919 988.411882,46.4007448" id="Fill-14" fill="#FFFFFF"/>
    <path d="M822.5,25 C815.607216,25 810,30.517831 810,37.3000718 L810,183 L835,183 L835,37.3000718 C835,30.517831 829.392784,25 822.5,25" id="Fill-16" fill="#FFFFFF"/>
    <path d="M1166.00771,104.000149 C1166.00771,133.837719 1144.12779,158.112321 1117.2335,158.112321 L1057.59621,158.112321 L1057.59621,49.887381 L1117.2335,49.887381 C1144.12779,49.887381 1166.00771,74.1622815 1166.00771,104.000149 M1169.76954,48.5286634 L1169.76954,48.5283655 C1155.80187,33.3557707 1137.14411,25 1117.2335,25 L1033.02333,25 L1033.02333,25.6842741 L1033,25.6842741 L1033,170.556161 L1033.02333,174.298071 L1033.02333,183 L1117.2335,183 C1137.14411,183 1155.80187,174.643634 1169.76954,159.470741 C1183.45989,144.599024 1191,124.898959 1191,103.999851 C1191,83.1010406 1183.45989,63.400678 1169.76954,48.5286634" id="Fill-18" fill="#FFFFFF"/>
    <path d="M764.818001,104 C764.818001,134.752535 740.899492,159.771744 711.5,159.771744 C682.100508,159.771744 658.181999,134.752535 658.181999,104 C658.181999,73.2474649 682.100508,48.2282555 711.5,48.2282555 C740.899492,48.2282555 764.818001,73.2474649 764.818001,104 M711.5,25 C690.988185,25 671.726377,33.2694384 657.262481,48.2853913 C642.90636,63.1894657 635,82.9758113 635,104 C635,125.024488 642.90636,144.811133 657.262481,159.714609 C671.726377,174.730562 690.988185,183 711.5,183 C732.011815,183 751.27422,174.730562 765.737817,159.714609 C780.09364,144.810534 788,125.024189 788,104 C788,82.9761104 780.09364,63.1897649 765.737817,48.2853913 C751.273623,33.2694384 732.011516,25 711.5,25" id="Fill-20" fill="#FFFFFF"/>
</svg>
