<svg xmlns="http://www.w3.org/2000/svg" viewBox="0 0 4624.77 1271.01">
  <defs>
    <linearGradient id="Naamloos_verloop_55" x1="319.87" y1="656.31" x2="1610.92" y2="656.31" gradientUnits="userSpaceOnUse">
      <stop offset="0" stop-color="#856cb0"/>
      <stop offset="1" stop-color="#9e76b4"/>
    </linearGradient>
    <linearGradient id="Naamloos_verloop_36" x1="1087.43" y1="696.82" x2="1613.89" y2="696.82" gradientUnits="userSpaceOnUse">
      <stop offset="0" stop-color="#d570ac"/>
      <stop offset="1" stop-color="#dc6aa8"/>
    </linearGradient>
    <linearGradient id="Naamloos_verloop_45" x1="1059.45" y1="816.05" x2="1650.55" y2="816.05" gradientUnits="userSpaceOnUse">
      <stop offset="0" stop-color="#fdbf60"/>
      <stop offset="1" stop-color="#f99e51"/>
    </linearGradient>
    <linearGradient id="Naamloos_verloop_50" x1="328.89" y1="461.93" x2="948.72" y2="461.93" gradientUnits="userSpaceOnUse">
      <stop offset="0" stop-color="#5676ba"/>
      <stop offset=".61" stop-color="#639fd6"/>
    </linearGradient>
    <linearGradient id="Naamloos_verloop_20" x1="346.4" y1="592.55" x2="910.48" y2="592.55" gradientUnits="userSpaceOnUse">
      <stop offset="0" stop-color="#88d4e6"/>
      <stop offset=".53" stop-color="#99d7dd"/>
      <stop offset="1" stop-color="#a3dad8"/>
    </linearGradient>
  </defs>
  <path fill="url(#Naamloos_verloop_55)" d="m340.21,718.95c-28.19-13.97-19.59,55.16-17.32,68.62,5.91,34.46,20.91,67.87,42.74,95.18,60.63,74,162.31,106.96,255.92,99.19,68.21-5.71,132.56-35.52,187.16-75.8,59.62-44.07,112.72-97.19,159.12-154.91,42-52.15,77.32-109.72,118.34-162.61,39.31-50.75,86.54-97.6,144.18-127.05,75.68-39.41,171.17-46.58,247.63-5.45,50.09,25.87,86.94,70.21,119,115.42,17.57,23.97,13.77-16.07,13.25-26.4-8.9-125.39-125.34-217.69-247.92-215.54-227.06,7.94-374.35,309.63-543.09,435.03-113.71,88.76-236.55,102.24-363.46,31.08-25.05-13.77-49.54-30.21-72.52-47.18-13.99-9.93-27.66-21.77-43.02-29.58Z"/>
  <path fill="url(#Naamloos_verloop_36)" d="m1096.81,650.88c-35.74-4.97,41.74,45.67,47.14,49.12,27.3,17.52,56.36,33.08,86.17,45.89,83.38,35.04,185.12,55.74,270.34,15.97,46.92-23.14,80.48-66.97,103.7-112.78,5.8-11.11,21.43-50.12-5.88-35.89-18.66,10.85-34.96,25.69-53.18,37.25-39.04,26.97-86.19,38.81-133.05,41.95-71,5.41-142.18-5.17-211.6-19.44-34.62-6.68-68.84-16.43-103.65-22.06Z"/>
  <path fill="url(#Naamloos_verloop_45)" d="m1071.1,719.86c-30.59-14.51,8.17,33.78,13.02,40.05,56,68.66,127.42,130.44,209.59,165.14,83.93,35.38,200.6,46.33,277.21-10.97,39.67-29.62,67.96-74.68,76.66-123.48,5.62-32.74,3.86-70.61-10.28-101.03-7.58-14.68-14.57-16.73-21.1.07-3.22,8.16-5.75,16.92-8.48,25.25-8.21,26.03-19.32,51.8-36.79,73.02-42.26,52.31-111.4,66.39-175.58,61.18-79.01-6.52-154.43-36.01-224.2-72.42-20.32-10.68-40.5-22.33-60.19-34.11-13.11-7.68-26.15-16.1-39.86-22.69Z"/>
  <path fill="url(#Naamloos_verloop_50)" d="m350.71,634.57c-25.34,11.23-22.25-51.84-21.01-65.52,5.07-54.57,24.16-108.13,54.8-153.57,64.93-98.76,193.35-148.63,307.85-119.04,90.75,22.25,163.16,90.15,212.4,167.23,13.32,20.94,25.61,43.14,35.01,66.13,3.17,7.2,18.46,47.55,0,37.5-23.38-18.45-40.94-43.69-62.7-63.98-34.9-34.82-75.98-64.88-122.59-81.83-111.03-42.34-235.62.83-311.11,89.04-21.94,24.54-40.66,52.23-58.27,79.97-10.5,15.1-19.06,33.26-34.39,44.08Z"/>
  <path fill="url(#Naamloos_verloop_20)" d="m346.93,690.32c-4.21,16.33,17.53,8.66,25.74,6.13,37.36-13.23,73.04-31.31,109.34-47.13,64.38-28.47,130.57-56.56,200.93-65.55,75.48-10.06,138.45,7.37,209.27,30.14,5.28,1.06,16.17,5.3,18.27.1.15-7.99-9.39-18.22-14-24.58-108.68-130.22-274.7-132.51-410.6-43.18-39.48,25.74-75.44,57.42-105.98,93.32-12.5,15.6-26.46,31.56-32.96,50.75Z"/>
  <path fill="#332f85" d="m2291.05,442.51c-48.22-46.27-112.21-71.76-180.18-71.76s-131.96,25.48-180.18,71.76c-48.68,46.72-75.49,108.96-75.49,175.27v282.76h82.59v-282.76c0-90.67,77.64-164.44,173.08-164.44s173.08,73.77,173.08,164.44v282.76h82.59v-282.76c0-66.31-26.81-128.55-75.49-175.27Z"/>
  <path fill="#332f85" d="m3625.35,442.51c-48.22-46.27-112.21-71.76-180.18-71.76s-131.96,25.48-180.18,71.76c-48.68,46.72-75.49,108.96-75.49,175.27v282.76h82.59v-282.76c0-90.67,77.64-164.44,173.08-164.44s173.08,73.77,173.08,164.44v282.76h82.59v-282.76c0-66.31-26.81-128.55-75.49-175.27Z"/>
  <path fill="#332f85" d="m3072.24,370.42c-22.77,0-41.29,18.53-41.29,41.29v489.16h82.59v-489.16c0-22.77-18.52-41.29-41.29-41.29Z"/>
  <path fill="#332f85" d="m4233.99,449.13h0c-46.69-50.93-109.06-78.98-175.62-78.98h-281.5v2.3h-.08v486.31l.08,12.56v29.21h281.5c66.56,0,128.93-28.05,175.62-78.98,45.76-49.92,70.97-116.05,70.97-186.21s-25.2-136.28-70.97-186.21Zm-12.57,186.21c0,100.16-73.14,181.65-163.04,181.65h-199.36v-363.29h199.36c89.9,0,163.04,81.49,163.04,181.65Z"/>
  <path fill="#332f85" d="m2698.75,371.55c-68.71,0-133.23,27.64-181.67,77.84-48.09,49.82-74.57,115.97-74.57,186.25s26.48,136.43,74.57,186.25c48.45,50.2,112.97,77.84,181.67,77.84s133.23-27.64,181.67-77.84c48.09-49.82,74.57-115.97,74.57-186.25s-26.48-136.43-74.57-186.25c-48.45-50.2-112.97-77.84-181.67-77.84Zm178.59,264.09c0,102.8-80.12,186.44-178.59,186.44s-178.59-83.64-178.59-186.44,80.12-186.44,178.59-186.44,178.59,83.64,178.59,186.44Z"/>
</svg>
