<?xml version="1.0" encoding="UTF-8"?>
<svg id="Layer_1" data-name="Layer 1" xmlns="http://www.w3.org/2000/svg" viewBox="0 0 4624.77 1271.01">
  <defs>
    <style>
      .cls-1 {
        fill: #fff;
      }
    </style>
  </defs>
  <g>
    <g id="SPLINE">
      <path class="cls-1" d="m337.81,719.12c-28.25-13.99-19.63,55.27-17.35,68.75,5.92,34.53,20.95,68,42.82,95.37,60.75,74.15,162.63,107.17,256.43,99.39,68.34-5.72,132.82-35.59,187.52-75.95,59.74-44.15,112.94-97.38,159.43-155.21,42.08-52.26,77.47-109.94,118.57-162.93,39.38-50.85,86.71-97.79,144.46-127.3,75.83-39.49,171.5-46.67,248.12-5.46,50.19,25.92,87.11,70.35,119.24,115.65,17.6,24.02,13.79-16.1,13.27-26.45-8.92-125.64-125.59-218.12-248.41-215.97-227.51,7.96-375.09,310.24-544.16,435.89-113.93,88.94-237.02,102.44-364.18,31.14-25.1-13.79-49.64-30.27-72.66-47.27-14.02-9.95-27.72-21.81-43.1-29.64Z"/>
    </g>
    <g id="SPLINE-2">
      <path class="cls-1" d="m1095.91,650.91c-35.81-4.98,41.82,45.76,47.23,49.22,27.36,17.55,56.47,33.14,86.34,45.98,83.55,35.11,185.49,55.85,270.88,16,47.01-23.19,80.64-67.1,103.91-113.01,5.81-11.14,21.48-50.22-5.89-35.96-18.7,10.87-35.03,25.74-53.28,37.33-39.12,27.02-86.36,38.89-133.31,42.03-71.14,5.42-142.46-5.18-212.01-19.48-34.69-6.69-68.98-16.47-103.85-22.11Z"/>
    </g>
    <g id="SPLINE-3">
      <path class="cls-1" d="m1070.15,720.03c-30.65-14.54,8.18,33.85,13.04,40.13,56.11,68.8,127.67,130.7,210,165.46,84.1,35.45,201,46.43,277.76-11,39.75-29.68,68.09-74.83,76.81-123.73,5.63-32.8,3.87-70.75-10.3-101.23-7.59-14.71-14.6-16.76-21.14.07-3.22,8.18-5.76,16.95-8.49,25.3-8.23,26.08-19.35,51.9-36.87,73.16-42.35,52.42-111.62,66.52-175.92,61.3-79.16-6.53-154.74-36.09-224.64-72.56-20.36-10.7-40.58-22.37-60.31-34.18-13.14-7.7-26.2-16.13-39.94-22.73Z"/>
    </g>
    <g id="SPLINE-4">
      <path class="cls-1" d="m348.33,634.57c-25.39,11.25-22.29-51.94-21.05-65.65,5.08-54.68,24.21-108.34,54.91-153.88,65.06-98.96,193.73-148.93,308.46-119.28,90.93,22.3,163.48,90.33,212.82,167.56,13.34,20.98,25.66,43.23,35.07,66.27,3.18,7.21,18.5,47.64,0,37.58-23.42-18.48-41.02-43.78-62.82-64.11-34.97-34.89-76.13-65.01-122.83-81.99-111.25-42.42-236.08.83-311.73,89.22-21.98,24.59-40.74,52.33-58.38,80.13-10.52,15.13-19.1,33.33-34.46,44.17Z"/>
    </g>
    <g id="SPLINE-5">
      <path class="cls-1" d="m344.55,690.43c-4.22,16.36,17.56,8.68,25.79,6.14,37.44-13.25,73.18-31.37,109.56-47.22,64.51-28.53,130.83-56.67,201.33-65.68,75.63-10.08,138.73,7.39,209.68,30.2,5.29,1.07,16.2,5.31,18.3.1.15-8.01-9.41-18.25-14.03-24.63-108.89-130.47-275.24-132.77-411.41-43.27-39.56,25.79-75.59,57.53-106.19,93.5-12.53,15.63-26.51,31.62-33.02,50.85Z"/>
    </g>
  </g>
  <g>
    <path class="cls-1" d="m2291.96,442.51c-48.22-46.27-112.21-71.76-180.18-71.76s-131.96,25.48-180.18,71.76c-48.68,46.72-75.49,108.96-75.49,175.27v282.76h82.59v-282.76c0-90.67,77.64-164.44,173.08-164.44s173.08,73.77,173.08,164.44v282.76h82.59v-282.76c0-66.31-26.81-128.55-75.49-175.27Z"/>
    <path class="cls-1" d="m3626.26,442.51c-48.22-46.27-112.21-71.76-180.18-71.76s-131.96,25.48-180.18,71.76c-48.68,46.72-75.49,108.96-75.49,175.27v282.76h82.59v-282.76c0-90.67,77.64-164.44,173.08-164.44s173.08,73.77,173.08,164.44v282.76h82.59v-282.76c0-66.31-26.81-128.55-75.49-175.27Z"/>
    <path class="cls-1" d="m3073.16,370.42c-22.77,0-41.29,18.53-41.29,41.29v489.16h82.59v-489.16c0-22.77-18.52-41.29-41.29-41.29Z"/>
    <path class="cls-1" d="m4234.91,449.13h0c-46.69-50.93-109.06-78.98-175.62-78.98h-281.5v2.3h-.08v486.31l.08,12.56v29.21h281.5c66.56,0,128.93-28.05,175.62-78.98,45.76-49.92,70.97-116.05,70.97-186.21s-25.2-136.28-70.97-186.21Zm-12.57,186.21c0,100.16-73.14,181.65-163.04,181.65h-199.36v-363.29h199.36c89.9,0,163.04,81.49,163.04,181.65Z"/>
    <path class="cls-1" d="m2699.66,371.55c-68.71,0-133.23,27.64-181.67,77.84-48.09,49.82-74.57,115.97-74.57,186.25s26.48,136.43,74.57,186.25c48.45,50.2,112.97,77.84,181.67,77.84s133.23-27.64,181.67-77.84c48.09-49.82,74.57-115.97,74.57-186.25s-26.48-136.43-74.57-186.25c-48.45-50.2-112.97-77.84-181.67-77.84Zm178.59,264.09c0,102.8-80.12,186.44-178.59,186.44s-178.59-83.64-178.59-186.44,80.12-186.44,178.59-186.44,178.59,83.64,178.59,186.44Z"/>
  </g>
</svg>
